<svg xmlns="http://www.w3.org/2000/svg" width="120" height="120" fill="currentColor" viewBox="0 0 120 120">
  <g clip-path="url(#a)">
    <path d="M15.586 19.648C33.154.31 62.304-4.707 85.89 4.727a7.502 7.502 0 0 1 4.175 9.75 7.498 7.498 0 0 1-9.746 4.175C61.9 11.285 39.596 15.528 26.69 29.736c-13.06 14.378-15.424 35.512-5.86 52.417 9.566 16.907 28.899 25.768 47.95 21.978l1.733-.386c17.75-4.376 31.011-20.785 34.639-38.92a7.498 7.498 0 0 1 8.823-5.885 7.5 7.5 0 0 1 5.884 8.824c-4.657 23.282-22.32 45.94-48.155 51.079-25.4 5.052-51.177-6.761-63.93-29.302C-4.98 67.001-1.827 38.82 15.586 19.65Z"/>
    <path d="M106.992 19.204a7.504 7.504 0 0 1 10.601-.425 7.503 7.503 0 0 1 .42 10.6l-50.4 54.605a7.504 7.504 0 0 1-5.362 2.412 7.504 7.504 0 0 1-5.454-2.197L35.796 63.198A7.5 7.5 0 0 1 46.4 52.592l15.48 15.479 45.112-48.867Z"/>
  </g>
  <defs>
    <clipPath id="a">
      <path d="M0 0h120v120H0z"/>
    </clipPath>
  </defs>
</svg>
