<svg width="1521" height="185" viewBox="0 0 1521 185" fill="none" xmlns="http://www.w3.org/2000/svg">
<g opacity="0.1">
<mask id="path-1-outside-1_36_351" maskUnits="userSpaceOnUse" x="-0.834839" y="-0.919922" width="1522" height="186" fill="black">
<rect fill="white" x="-0.834839" y="-0.919922" width="1522" height="186"/>
<path d="M110.12 169.08L66.78 95.8201L101.76 75.1401L159.18 169.08H110.12ZM12 169.08V15.0801H55.34V169.08H12ZM42.8 110.12V74.9201H98.68V110.12H42.8ZM105.94 96.7001L65.68 92.3001L112.98 15.0801H158.74L105.94 96.7001ZM269.974 172.16C257.654 172.16 246.287 170.18 235.874 166.22C225.461 162.26 216.367 156.687 208.594 149.5C200.967 142.167 195.027 133.66 190.774 123.98C186.521 114.3 184.394 103.667 184.394 92.0801C184.394 80.4934 186.521 69.8601 190.774 60.1801C195.027 50.5001 200.967 42.0667 208.594 34.8801C216.367 27.5467 225.461 21.9001 235.874 17.9401C246.287 13.9801 257.654 12.0001 269.974 12.0001C282.441 12.0001 293.807 13.9801 304.074 17.9401C314.487 21.9001 323.507 27.5467 331.134 34.8801C338.761 42.0667 344.701 50.5001 348.954 60.1801C353.354 69.8601 355.554 80.4934 355.554 92.0801C355.554 103.667 353.354 114.373 348.954 124.2C344.701 133.88 338.761 142.313 331.134 149.5C323.507 156.687 314.487 162.26 304.074 166.22C293.807 170.18 282.441 172.16 269.974 172.16ZM269.974 136.08C275.841 136.08 281.267 135.053 286.254 133C291.387 130.947 295.787 128.013 299.454 124.2C303.267 120.24 306.201 115.547 308.254 110.12C310.454 104.693 311.554 98.6801 311.554 92.0801C311.554 85.3334 310.454 79.3201 308.254 74.0401C306.201 68.6134 303.267 63.9934 299.454 60.1801C295.787 56.2201 291.387 53.2134 286.254 51.1601C281.267 49.1067 275.841 48.0801 269.974 48.0801C264.107 48.0801 258.607 49.1067 253.474 51.1601C248.487 53.2134 244.087 56.2201 240.274 60.1801C236.607 63.9934 233.674 68.6134 231.474 74.0401C229.421 79.3201 228.394 85.3334 228.394 92.0801C228.394 98.6801 229.421 104.693 231.474 110.12C233.674 115.547 236.607 120.24 240.274 124.2C244.087 128.013 248.487 130.947 253.474 133C258.607 135.053 264.107 136.08 269.974 136.08ZM503.805 15.0801H547.365V169.08H503.805V15.0801ZM444.405 169.08H400.845V15.0801H444.405V169.08ZM506.885 109.02H441.325V72.9401H506.885V109.02ZM636.554 169.08V39.9401L646.234 49.6201H589.254V15.0801H726.534V49.6201H669.774L679.454 39.9401V169.08H636.554ZM745.48 169.08L813.46 15.0801H856.36L924.56 169.08H879.24L826 36.4201H843.16L789.92 169.08H745.48ZM782.66 139.16L793.88 107.04H869.12L880.34 139.16H782.66ZM1061.45 169.08L1018.11 95.8201L1053.09 75.1401L1110.51 169.08H1061.45ZM963.328 169.08V15.0801H1006.67V169.08H963.328ZM994.128 110.12V74.9201H1050.01V110.12H994.128ZM1057.27 96.7001L1017.01 92.3001L1064.31 15.0801H1110.07L1057.27 96.7001ZM1178.65 169.08V39.9401L1188.33 49.6201H1131.35V15.0801H1268.63V49.6201H1211.87L1221.55 39.9401V169.08H1178.65ZM1389.25 64.1401C1408.02 64.1401 1422.54 68.3201 1432.81 76.6801C1443.22 85.0401 1448.43 97.5801 1448.43 114.3C1448.43 132.34 1442.63 145.98 1431.05 155.22C1419.46 164.46 1403.62 169.08 1383.53 169.08H1310.71V15.0801H1353.61V64.1401H1389.25ZM1380.67 137.84C1388 137.84 1393.79 135.86 1398.05 131.9C1402.45 127.94 1404.65 122.367 1404.65 115.18C1404.65 107.847 1402.45 102.713 1398.05 99.7801C1393.79 96.7001 1388 95.1601 1380.67 95.1601H1353.61V137.84H1380.67ZM1465.37 169.08V15.0801H1508.27V169.08H1465.37Z"/>
</mask>
<path d="M110.12 169.08L99.792 175.19L103.276 181.08H110.12V169.08ZM66.78 95.8201L60.6731 85.4902L50.3402 91.599L56.452 101.93L66.78 95.8201ZM101.76 75.1401L111.999 68.8817L105.832 58.7926L95.6531 64.8102L101.76 75.1401ZM159.18 169.08V181.08H180.579L169.419 162.822L159.18 169.08ZM12 169.08H5.48363e-06V181.08H12V169.08ZM12 15.0801V3.08007H5.48363e-06V15.0801H12ZM55.34 15.0801H67.34V3.08007H55.34V15.0801ZM55.34 169.08V181.08H67.34V169.08H55.34ZM42.8 110.12H30.8V122.12H42.8V110.12ZM42.8 74.9201V62.9201H30.8V74.9201H42.8ZM98.68 74.9201H110.68V62.9201H98.68V74.9201ZM98.68 110.12V122.12H110.68V110.12H98.68ZM105.94 96.7001L104.636 108.629L111.995 109.433L116.016 103.218L105.94 96.7001ZM65.68 92.3001L55.4471 86.0321L45.5604 102.173L64.3763 104.229L65.68 92.3001ZM112.98 15.0801V3.08007H106.258L102.747 8.81206L112.98 15.0801ZM158.74 15.0801L168.816 21.598L180.795 3.08007H158.74V15.0801ZM110.12 169.08L120.448 162.97L77.108 89.7101L66.78 95.8201L56.452 101.93L99.792 175.19L110.12 169.08ZM66.78 95.8201L72.8869 106.15L107.867 85.4699L101.76 75.1401L95.6531 64.8102L60.6731 85.4902L66.78 95.8201ZM101.76 75.1401L91.5212 81.3984L148.941 175.338L159.18 169.08L169.419 162.822L111.999 68.8817L101.76 75.1401ZM159.18 169.08V157.08H110.12V169.08V181.08H159.18V169.08ZM12 169.08H24V15.0801H12H5.48363e-06V169.08H12ZM12 15.0801V27.0801H55.34V15.0801V3.08007H12V15.0801ZM55.34 15.0801H43.34V169.08H55.34H67.34V15.0801H55.34ZM55.34 169.08V157.08H12V169.08V181.08H55.34V169.08ZM42.8 110.12H54.8V74.9201H42.8H30.8V110.12H42.8ZM42.8 74.9201V86.9201H98.68V74.9201V62.9201H42.8V74.9201ZM98.68 74.9201H86.68V110.12H98.68H110.68V74.9201H98.68ZM98.68 110.12V98.1201H42.8V110.12V122.12H98.68V110.12ZM105.94 96.7001L107.244 84.7711L66.9837 80.3711L65.68 92.3001L64.3763 104.229L104.636 108.629L105.94 96.7001ZM65.68 92.3001L75.9129 98.5681L123.213 21.3481L112.98 15.0801L102.747 8.81206L55.4471 86.0321L65.68 92.3001ZM112.98 15.0801V27.0801H158.74V15.0801V3.08007H112.98V15.0801ZM158.74 15.0801L148.664 8.56218L95.8644 90.1822L105.94 96.7001L116.016 103.218L168.816 21.598L158.74 15.0801ZM235.874 166.22L231.609 177.436V177.436L235.874 166.22ZM208.594 149.5L200.277 158.15L200.361 158.232L200.448 158.311L208.594 149.5ZM190.774 123.98L179.788 128.807V128.807L190.774 123.98ZM190.774 60.1801L179.788 55.3528L190.774 60.1801ZM208.594 34.8801L216.824 43.6135L216.829 43.6088L208.594 34.8801ZM235.874 17.9401L231.609 6.72372V6.72372L235.874 17.9401ZM304.074 17.9401L299.756 29.1361L299.782 29.1463L299.809 29.1564L304.074 17.9401ZM331.134 34.8801L322.817 43.5301L322.86 43.572L322.904 43.6135L331.134 34.8801ZM348.954 60.1801L337.968 65.0074L337.998 65.0767L338.03 65.1457L348.954 60.1801ZM348.954 124.2L338.002 119.296L337.985 119.334L337.968 119.373L348.954 124.2ZM331.134 149.5L339.364 158.234V158.234L331.134 149.5ZM304.074 166.22L299.809 155.004L299.782 155.014L299.756 155.024L304.074 166.22ZM286.254 133L281.797 121.858L281.741 121.881L281.685 121.904L286.254 133ZM299.454 124.2L290.81 115.876L290.804 115.883L299.454 124.2ZM308.254 110.12L297.133 105.612L297.08 105.742L297.031 105.873L308.254 110.12ZM308.254 74.0401L297.031 78.2868L297.101 78.4723L297.177 78.6555L308.254 74.0401ZM299.454 60.1801L290.649 68.333L290.806 68.5022L290.969 68.6654L299.454 60.1801ZM286.254 51.1601L281.685 62.2562L281.741 62.2793L281.797 62.3018L286.254 51.1601ZM253.474 51.1601L249.017 40.0184L248.961 40.0409L248.905 40.0639L253.474 51.1601ZM240.274 60.1801L231.63 51.8564L231.624 51.8628L240.274 60.1801ZM231.474 74.0401L220.353 69.5316L220.321 69.6109L220.29 69.6907L231.474 74.0401ZM231.474 110.12L220.251 114.367L220.3 114.498L220.353 114.629L231.474 110.12ZM240.274 124.2L231.469 132.353L231.626 132.522L231.789 132.685L240.274 124.2ZM253.474 133L248.905 144.096L248.961 144.119L249.017 144.142L253.474 133ZM269.974 172.16V160.16C258.958 160.16 249.054 158.394 240.139 155.004L235.874 166.22L231.609 177.436C243.521 181.967 256.35 184.16 269.974 184.16V172.16ZM235.874 166.22L240.139 155.004C231.085 151.561 223.327 146.779 216.74 140.689L208.594 149.5L200.448 158.311C209.407 166.595 219.836 172.96 231.609 177.436L235.874 166.22ZM208.594 149.5L216.911 140.85C210.415 134.604 205.382 127.395 201.76 119.153L190.774 123.98L179.788 128.807C184.673 139.925 191.52 149.73 200.277 158.15L208.594 149.5ZM190.774 123.98L201.76 119.153C198.237 111.135 196.394 102.165 196.394 92.0801H184.394H172.394C172.394 105.168 174.804 117.465 179.788 128.807L190.774 123.98ZM184.394 92.0801H196.394C196.394 81.9947 198.237 73.0254 201.76 65.0074L190.774 60.1801L179.788 55.3528C174.804 66.6948 172.394 78.9921 172.394 92.0801H184.394ZM190.774 60.1801L201.76 65.0074C205.372 56.7875 210.379 49.6861 216.824 43.6135L208.594 34.8801L200.364 26.1466C191.555 34.4474 184.683 44.2126 179.788 55.3528L190.774 60.1801ZM208.594 34.8801L216.829 43.6088C223.407 37.4033 231.136 32.5803 240.139 29.1564L235.874 17.9401L231.609 6.72372C219.786 11.2199 209.328 17.6902 200.359 26.1514L208.594 34.8801ZM235.874 17.9401L240.139 29.1564C249.054 25.7666 258.958 24.0001 269.974 24.0001V12.0001V6.86646e-05C256.35 6.86646e-05 243.521 2.19357 231.609 6.72372L235.874 17.9401ZM269.974 12.0001V24.0001C281.159 24.0001 291.037 25.7733 299.756 29.1361L304.074 17.9401L308.393 6.74405C296.577 2.18679 283.723 6.86646e-05 269.974 6.86646e-05V12.0001ZM304.074 17.9401L299.809 29.1564C308.794 32.5733 316.415 37.3749 322.817 43.5301L331.134 34.8801L339.451 26.2301C330.599 17.7185 320.181 11.2268 308.339 6.72372L304.074 17.9401ZM331.134 34.8801L322.904 43.6135C329.349 49.6861 334.356 56.7875 337.968 65.0074L348.954 60.1801L359.94 55.3528C355.045 44.2126 348.173 34.4474 339.364 26.1466L331.134 34.8801ZM348.954 60.1801L338.03 65.1457C341.659 73.1307 343.554 82.051 343.554 92.0801H355.554H367.554C367.554 78.9358 365.049 66.5895 359.878 55.2144L348.954 60.1801ZM355.554 92.0801H343.554C343.554 102.107 341.66 111.127 338.002 119.296L348.954 124.2L359.906 129.104C365.048 117.62 367.554 105.226 367.554 92.0801H355.554ZM348.954 124.2L337.968 119.373C334.356 127.593 329.349 134.694 322.904 140.767L331.134 149.5L339.364 158.234C348.173 149.933 355.045 140.168 359.94 129.027L348.954 124.2ZM331.134 149.5L322.904 140.767C316.495 146.807 308.845 151.568 299.809 155.004L304.074 166.22L308.339 177.436C320.13 172.953 330.52 166.567 339.364 158.234L331.134 149.5ZM304.074 166.22L299.756 155.024C291.037 158.387 281.159 160.16 269.974 160.16V172.16V184.16C283.723 184.16 296.577 181.973 308.393 177.416L304.074 166.22ZM269.974 136.08V148.08C277.27 148.08 284.264 146.797 290.823 144.096L286.254 133L281.685 121.904C278.271 123.31 274.412 124.08 269.974 124.08V136.08ZM286.254 133L290.711 144.142C297.354 141.485 303.203 137.615 308.104 132.517L299.454 124.2L290.804 115.883C288.372 118.412 285.421 120.409 281.797 121.858L286.254 133ZM299.454 124.2L308.098 132.524C313.1 127.329 316.882 121.227 319.478 114.367L308.254 110.12L297.031 105.873C295.52 109.866 293.435 113.151 290.81 115.876L299.454 124.2ZM308.254 110.12L319.375 114.629C322.225 107.599 323.554 100.03 323.554 92.0801H311.554H299.554C299.554 97.3303 298.683 101.788 297.133 105.612L308.254 110.12ZM311.554 92.0801H323.554C323.554 84.0289 322.239 76.405 319.331 69.4247L308.254 74.0401L297.177 78.6555C298.669 82.2352 299.554 86.6379 299.554 92.0801H311.554ZM308.254 74.0401L319.478 69.7934C316.869 62.8983 313.045 56.8003 307.939 51.6948L299.454 60.1801L290.969 68.6654C293.49 71.1866 295.533 74.3285 297.031 78.2868L308.254 74.0401ZM299.454 60.1801L308.259 52.0272C303.353 46.7281 297.456 42.7163 290.711 40.0184L286.254 51.1601L281.797 62.3018C285.319 63.7105 288.222 65.7121 290.649 68.333L299.454 60.1801ZM286.254 51.1601L290.823 40.0639C284.264 37.3632 277.27 36.0801 269.974 36.0801V48.0801V60.0801C274.412 60.0801 278.271 60.8503 281.685 62.2562L286.254 51.1601ZM269.974 48.0801V36.0801C262.675 36.0801 255.653 37.364 249.017 40.0184L253.474 51.1601L257.931 62.3018C261.562 60.8495 265.54 60.0801 269.974 60.0801V48.0801ZM253.474 51.1601L248.905 40.0639C242.353 42.762 236.572 46.7241 231.63 51.8564L240.274 60.1801L248.918 68.5038C251.602 65.716 254.622 63.6648 258.043 62.2562L253.474 51.1601ZM240.274 60.1801L231.624 51.8628C226.791 56.8888 223.066 62.841 220.353 69.5316L231.474 74.0401L242.595 78.5485C244.283 74.3858 246.423 71.098 248.924 68.4974L240.274 60.1801ZM231.474 74.0401L220.29 69.6907C217.605 76.5945 216.394 84.1232 216.394 92.0801H228.394H240.394C240.394 86.5436 241.236 82.0456 242.658 78.3894L231.474 74.0401ZM228.394 92.0801H216.394C216.394 99.9335 217.618 107.41 220.251 114.367L231.474 110.12L242.698 105.873C241.223 101.977 240.394 97.4267 240.394 92.0801H228.394ZM231.474 110.12L220.353 114.629C223.052 121.285 226.736 127.241 231.469 132.353L240.274 124.2L249.079 116.047C246.479 113.239 244.296 109.808 242.595 105.612L231.474 110.12ZM240.274 124.2L231.789 132.685C236.722 137.619 242.453 141.44 248.905 144.096L253.474 133L258.043 121.904C254.521 120.454 251.452 118.408 248.759 115.715L240.274 124.2ZM253.474 133L249.017 144.142C255.653 146.796 262.675 148.08 269.974 148.08V136.08V124.08C265.54 124.08 261.562 123.311 257.931 121.858L253.474 133ZM503.805 15.0801V3.08007H491.805V15.0801H503.805ZM547.365 15.0801H559.365V3.08007H547.365V15.0801ZM547.365 169.08V181.08H559.365V169.08H547.365ZM503.805 169.08H491.805V181.08H503.805V169.08ZM444.405 169.08V181.08H456.405V169.08H444.405ZM400.845 169.08H388.845V181.08H400.845V169.08ZM400.845 15.0801V3.08007H388.845V15.0801H400.845ZM444.405 15.0801H456.405V3.08007H444.405V15.0801ZM506.885 109.02V121.02H518.885V109.02H506.885ZM441.325 109.02H429.325V121.02H441.325V109.02ZM441.325 72.9401V60.9401H429.325V72.9401H441.325ZM506.885 72.9401H518.885V60.9401H506.885V72.9401ZM503.805 15.0801V27.0801H547.365V15.0801V3.08007H503.805V15.0801ZM547.365 15.0801H535.365V169.08H547.365H559.365V15.0801H547.365ZM547.365 169.08V157.08H503.805V169.08V181.08H547.365V169.08ZM503.805 169.08H515.805V15.0801H503.805H491.805V169.08H503.805ZM444.405 169.08V157.08H400.845V169.08V181.08H444.405V169.08ZM400.845 169.08H412.845V15.0801H400.845H388.845V169.08H400.845ZM400.845 15.0801V27.0801H444.405V15.0801V3.08007H400.845V15.0801ZM444.405 15.0801H432.405V169.08H444.405H456.405V15.0801H444.405ZM506.885 109.02V97.0201H441.325V109.02V121.02H506.885V109.02ZM441.325 109.02H453.325V72.9401H441.325H429.325V109.02H441.325ZM441.325 72.9401V84.9401H506.885V72.9401V60.9401H441.325V72.9401ZM506.885 72.9401H494.885V109.02H506.885H518.885V72.9401H506.885ZM636.554 169.08H624.554V181.08H636.554V169.08ZM636.554 39.9401L645.039 31.4548L624.554 10.9695V39.9401H636.554ZM646.234 49.6201V61.6201H675.205L654.719 41.1348L646.234 49.6201ZM589.254 49.6201H577.254V61.6201H589.254V49.6201ZM589.254 15.0801V3.08007H577.254V15.0801H589.254ZM726.534 15.0801H738.534V3.08007H726.534V15.0801ZM726.534 49.6201V61.6201H738.534V49.6201H726.534ZM669.774 49.6201L661.289 41.1348L640.804 61.6201H669.774V49.6201ZM679.454 39.9401H691.454V10.9695L670.969 31.4548L679.454 39.9401ZM679.454 169.08V181.08H691.454V169.08H679.454ZM636.554 169.08H648.554V39.9401H636.554H624.554V169.08H636.554ZM636.554 39.9401L628.069 48.4254L637.749 58.1054L646.234 49.6201L654.719 41.1348L645.039 31.4548L636.554 39.9401ZM646.234 49.6201V37.6201H589.254V49.6201V61.6201H646.234V49.6201ZM589.254 49.6201H601.254V15.0801H589.254H577.254V49.6201H589.254ZM589.254 15.0801V27.0801H726.534V15.0801V3.08007H589.254V15.0801ZM726.534 15.0801H714.534V49.6201H726.534H738.534V15.0801H726.534ZM726.534 49.6201V37.6201H669.774V49.6201V61.6201H726.534V49.6201ZM669.774 49.6201L678.26 58.1054L687.94 48.4254L679.454 39.9401L670.969 31.4548L661.289 41.1348L669.774 49.6201ZM679.454 39.9401H667.454V169.08H679.454H691.454V39.9401H679.454ZM679.454 169.08V157.08H636.554V169.08V181.08H679.454V169.08ZM745.48 169.08L734.502 164.234L727.066 181.08H745.48V169.08ZM813.46 15.0801V3.08007H805.64L802.482 10.2341L813.46 15.0801ZM856.36 15.0801L867.332 10.221L864.17 3.08007H856.36V15.0801ZM924.56 169.08V181.08H942.998L935.532 164.221L924.56 169.08ZM879.24 169.08L868.103 173.549L871.126 181.08H879.24V169.08ZM826 36.4201V24.4201H808.254L814.863 40.8895L826 36.4201ZM843.16 36.4201L854.297 40.8895L860.906 24.4201H843.16V36.4201ZM789.92 169.08V181.08H798.034L801.057 173.549L789.92 169.08ZM782.66 139.16L771.331 135.203L765.757 151.16H782.66V139.16ZM793.88 107.04V95.0401H785.361L782.551 103.083L793.88 107.04ZM869.12 107.04L880.449 103.083L877.639 95.0401H869.12V107.04ZM880.34 139.16V151.16H897.243L891.669 135.203L880.34 139.16ZM745.48 169.08L756.458 173.926L824.438 19.9261L813.46 15.0801L802.482 10.2341L734.502 164.234L745.48 169.08ZM813.46 15.0801V27.0801H856.36V15.0801V3.08007H813.46V15.0801ZM856.36 15.0801L845.388 19.9392L913.588 173.939L924.56 169.08L935.532 164.221L867.332 10.221L856.36 15.0801ZM924.56 169.08V157.08H879.24V169.08V181.08H924.56V169.08ZM879.24 169.08L890.377 164.611L837.137 31.9506L826 36.4201L814.863 40.8895L868.103 173.549L879.24 169.08ZM826 36.4201V48.4201H843.16V36.4201V24.4201H826V36.4201ZM843.16 36.4201L832.023 31.9506L778.783 164.611L789.92 169.08L801.057 173.549L854.297 40.8895L843.16 36.4201ZM789.92 169.08V157.08H745.48V169.08V181.08H789.92V169.08ZM782.66 139.16L793.989 143.117L805.209 110.997L793.88 107.04L782.551 103.083L771.331 135.203L782.66 139.16ZM793.88 107.04V119.04H869.12V107.04V95.0401H793.88V107.04ZM869.12 107.04L857.791 110.997L869.011 143.117L880.34 139.16L891.669 135.203L880.449 103.083L869.12 107.04ZM880.34 139.16V127.16H782.66V139.16V151.16H880.34V139.16ZM1061.45 169.08L1051.12 175.19L1054.6 181.08H1061.45V169.08ZM1018.11 95.8201L1012 85.4902L1001.67 91.599L1007.78 101.93L1018.11 95.8201ZM1053.09 75.1401L1063.33 68.8817L1057.16 58.7926L1046.98 64.8102L1053.09 75.1401ZM1110.51 169.08V181.08H1131.91L1120.75 162.822L1110.51 169.08ZM963.328 169.08H951.328V181.08H963.328V169.08ZM963.328 15.0801V3.08007H951.328V15.0801H963.328ZM1006.67 15.0801H1018.67V3.08007H1006.67V15.0801ZM1006.67 169.08V181.08H1018.67V169.08H1006.67ZM994.128 110.12H982.128V122.12H994.128V110.12ZM994.128 74.9201V62.9201H982.128V74.9201H994.128ZM1050.01 74.9201H1062.01V62.9201H1050.01V74.9201ZM1050.01 110.12V122.12H1062.01V110.12H1050.01ZM1057.27 96.7001L1055.96 108.629L1063.32 109.433L1067.34 103.218L1057.27 96.7001ZM1017.01 92.3001L1006.78 86.0321L996.889 102.173L1015.7 104.229L1017.01 92.3001ZM1064.31 15.0801V3.08007H1057.59L1054.08 8.81206L1064.31 15.0801ZM1110.07 15.0801L1120.14 21.598L1132.12 3.08007H1110.07V15.0801ZM1061.45 169.08L1071.78 162.97L1028.44 89.7101L1018.11 95.8201L1007.78 101.93L1051.12 175.19L1061.45 169.08ZM1018.11 95.8201L1024.22 106.15L1059.2 85.4699L1053.09 75.1401L1046.98 64.8102L1012 85.4902L1018.11 95.8201ZM1053.09 75.1401L1042.85 81.3984L1100.27 175.338L1110.51 169.08L1120.75 162.822L1063.33 68.8817L1053.09 75.1401ZM1110.51 169.08V157.08H1061.45V169.08V181.08H1110.51V169.08ZM963.328 169.08H975.328V15.0801H963.328H951.328V169.08H963.328ZM963.328 15.0801V27.0801H1006.67V15.0801V3.08007H963.328V15.0801ZM1006.67 15.0801H994.668V169.08H1006.67H1018.67V15.0801H1006.67ZM1006.67 169.08V157.08H963.328V169.08V181.08H1006.67V169.08ZM994.128 110.12H1006.13V74.9201H994.128H982.128V110.12H994.128ZM994.128 74.9201V86.9201H1050.01V74.9201V62.9201H994.128V74.9201ZM1050.01 74.9201H1038.01V110.12H1050.01H1062.01V74.9201H1050.01ZM1050.01 110.12V98.1201H994.128V110.12V122.12H1050.01V110.12ZM1057.27 96.7001L1058.57 84.7711L1018.31 80.3711L1017.01 92.3001L1015.7 104.229L1055.96 108.629L1057.27 96.7001ZM1017.01 92.3001L1027.24 98.5681L1074.54 21.3481L1064.31 15.0801L1054.08 8.81206L1006.78 86.0321L1017.01 92.3001ZM1064.31 15.0801V27.0801H1110.07V15.0801V3.08007H1064.31V15.0801ZM1110.07 15.0801L1099.99 8.56218L1047.19 90.1822L1057.27 96.7001L1067.34 103.218L1120.14 21.598L1110.07 15.0801ZM1178.65 169.08H1166.65V181.08H1178.65V169.08ZM1178.65 39.9401L1187.13 31.4548L1166.65 10.9695V39.9401H1178.65ZM1188.33 49.6201V61.6201H1217.3L1196.81 41.1348L1188.33 49.6201ZM1131.35 49.6201H1119.35V61.6201H1131.35V49.6201ZM1131.35 15.0801V3.08007H1119.35V15.0801H1131.35ZM1268.63 15.0801H1280.63V3.08007H1268.63V15.0801ZM1268.63 49.6201V61.6201H1280.63V49.6201H1268.63ZM1211.87 49.6201L1203.38 41.1348L1182.9 61.6201H1211.87V49.6201ZM1221.55 39.9401H1233.55V10.9695L1213.06 31.4548L1221.55 39.9401ZM1221.55 169.08V181.08H1233.55V169.08H1221.55ZM1178.65 169.08H1190.65V39.9401H1178.65H1166.65V169.08H1178.65ZM1178.65 39.9401L1170.16 48.4254L1179.84 58.1054L1188.33 49.6201L1196.81 41.1348L1187.13 31.4548L1178.65 39.9401ZM1188.33 49.6201V37.6201H1131.35V49.6201V61.6201H1188.33V49.6201ZM1131.35 49.6201H1143.35V15.0801H1131.35H1119.35V49.6201H1131.35ZM1131.35 15.0801V27.0801H1268.63V15.0801V3.08007H1131.35V15.0801ZM1268.63 15.0801H1256.63V49.6201H1268.63H1280.63V15.0801H1268.63ZM1268.63 49.6201V37.6201H1211.87V49.6201V61.6201H1268.63V49.6201ZM1211.87 49.6201L1220.35 58.1054L1230.03 48.4254L1221.55 39.9401L1213.06 31.4548L1203.38 41.1348L1211.87 49.6201ZM1221.55 39.9401H1209.55V169.08H1221.55H1233.55V39.9401H1221.55ZM1221.55 169.08V157.08H1178.65V169.08V181.08H1221.55V169.08ZM1432.81 76.6801L1425.23 85.9853L1425.26 86.0116L1425.3 86.0376L1432.81 76.6801ZM1310.71 169.08H1298.71V181.08H1310.71V169.08ZM1310.71 15.0801V3.08007H1298.71V15.0801H1310.71ZM1353.61 15.0801H1365.61V3.08007H1353.61V15.0801ZM1353.61 64.1401H1341.61V76.1401H1353.61V64.1401ZM1398.05 131.9L1390.02 122.981L1389.95 123.048L1389.87 123.117L1398.05 131.9ZM1398.05 99.7801L1391.01 109.499L1391.2 109.636L1391.39 109.765L1398.05 99.7801ZM1353.61 95.1601V83.1601H1341.61V95.1601H1353.61ZM1353.61 137.84H1341.61V149.84H1353.61V137.84ZM1465.37 169.08H1453.37V181.08H1465.37V169.08ZM1465.37 15.0801V3.08007H1453.37V15.0801H1465.37ZM1508.27 15.0801H1520.27V3.08007H1508.27V15.0801ZM1508.27 169.08V181.08H1520.27V169.08H1508.27ZM1389.25 64.1401V76.1401C1406.39 76.1401 1417.84 79.9695 1425.23 85.9853L1432.81 76.6801L1440.39 67.3748C1427.24 56.6707 1409.65 52.1401 1389.25 52.1401V64.1401ZM1432.81 76.6801L1425.3 86.0376C1432.17 91.5579 1436.43 100.214 1436.43 114.3H1448.43H1460.43C1460.43 94.9462 1454.27 78.5223 1440.32 67.3225L1432.81 76.6801ZM1448.43 114.3H1436.43C1436.43 129.566 1431.68 139.371 1423.57 145.838L1431.05 155.22L1438.53 164.602C1453.59 152.589 1460.43 135.114 1460.43 114.3H1448.43ZM1431.05 155.22L1423.57 145.838C1414.75 152.867 1401.87 157.08 1383.53 157.08V169.08V181.08C1405.38 181.08 1424.17 176.053 1438.53 164.602L1431.05 155.22ZM1383.53 169.08V157.08H1310.71V169.08V181.08H1383.53V169.08ZM1310.71 169.08H1322.71V15.0801H1310.71H1298.71V169.08H1310.71ZM1310.71 15.0801V27.0801H1353.61V15.0801V3.08007H1310.71V15.0801ZM1353.61 15.0801H1341.61V64.1401H1353.61H1365.61V15.0801H1353.61ZM1353.61 64.1401V76.1401H1389.25V64.1401V52.1401H1353.61V64.1401ZM1380.67 137.84V149.84C1390.21 149.84 1399.21 147.213 1406.23 140.683L1398.05 131.9L1389.87 123.117C1388.38 124.507 1385.79 125.84 1380.67 125.84V137.84ZM1398.05 131.9L1406.08 140.82C1413.54 134.104 1416.65 124.979 1416.65 115.18H1404.65H1392.65C1392.65 119.755 1391.36 121.776 1390.02 122.981L1398.05 131.9ZM1404.65 115.18H1416.65C1416.65 105.529 1413.64 95.7538 1404.7 89.7955L1398.05 99.7801L1391.39 109.765C1391.54 109.866 1391.73 110.004 1391.97 110.557C1392.26 111.241 1392.65 112.654 1392.65 115.18H1404.65ZM1398.05 99.7801L1405.09 90.0608C1398.12 85.0138 1389.55 83.1601 1380.67 83.1601V95.1601V107.16C1386.45 107.16 1389.47 108.386 1391.01 109.499L1398.05 99.7801ZM1380.67 95.1601V83.1601H1353.61V95.1601V107.16H1380.67V95.1601ZM1353.61 95.1601H1341.61V137.84H1353.61H1365.61V95.1601H1353.61ZM1353.61 137.84V149.84H1380.67V137.84V125.84H1353.61V137.84ZM1465.37 169.08H1477.37V15.0801H1465.37H1453.37V169.08H1465.37ZM1465.37 15.0801V27.0801H1508.27V15.0801V3.08007H1465.37V15.0801ZM1508.27 15.0801H1496.27V169.08H1508.27H1520.27V15.0801H1508.27ZM1508.27 169.08V157.08H1465.37V169.08V181.08H1508.27V169.08Z" fill="#1E1E1E" mask="url(#path-1-outside-1_36_351)"/>
</g>
</svg>
