<svg width="77" height="80" viewBox="0 0 77 80" fill="none" xmlns="http://www.w3.org/2000/svg">
<path d="M55 17.216C55 16.6283 54.7684 16.0646 54.3563 15.649C53.9441 15.2335 53.385 15 52.8021 15H30.1979C29.615 15 29.0559 15.2335 28.6438 15.649C28.2316 16.0646 28 16.6283 28 17.216C28 17.8037 28.2316 18.3673 28.6438 18.7829C29.0559 19.1985 29.615 19.4319 30.1979 19.4319H52.8021C53.0907 19.4319 53.3765 19.3746 53.6432 19.2633C53.9099 19.1519 54.1522 18.9887 54.3563 18.7829C54.5603 18.5771 54.7222 18.3328 54.8327 18.064C54.9431 17.7951 55 17.507 55 17.216ZM30.1979 24.5681C29.615 24.5681 29.0559 24.8015 28.6438 25.2171C28.2316 25.6327 28 26.1963 28 26.784C28 27.3717 28.2316 27.9354 28.6438 28.351C29.0559 28.7665 29.615 29 30.1979 29H41.1483C41.7313 29 42.2903 28.7665 42.7025 28.351C43.1147 27.9354 43.3462 27.3717 43.3462 26.784C43.3462 26.1963 43.1147 25.6327 42.7025 25.2171C42.2903 24.8015 41.7313 24.5681 41.1483 24.5681H30.1979Z" fill="#F70000"/>
<path d="M46.2693 65.5077H12.6594C5.97957 65.5077 5.91517 55.0341 12.6594 55.0341H41.2167C41.8079 55.0341 42.3749 54.7976 42.7929 54.3766C43.211 53.9556 43.4458 53.3846 43.4458 52.7892C43.4458 52.1938 43.211 51.6228 42.7929 51.2018C42.3749 50.7808 41.8079 50.5443 41.2167 50.5443H20.9269V7.49228H59.2477C61.0632 7.49228 62.5418 8.98139 62.5418 10.8097V34.9298C62.5418 35.5252 62.7766 36.0962 63.1947 36.5172C63.6127 36.9382 64.1797 37.1747 64.7709 37.1747C65.3621 37.1747 65.9291 36.9382 66.3471 36.5172C66.7651 36.0962 67 35.5252 67 34.9298V10.8097C66.998 8.73906 66.1804 6.75378 64.7265 5.2896C63.2726 3.82543 61.3013 3.00198 59.2452 3H12.6594C10.0986 3.00462 7.64395 4.03134 5.83337 5.85521C4.0228 7.67907 3.00393 10.1513 3 12.7304V60.2721C3 65.6349 7.33437 70 12.6594 70H46.2693C46.8609 70 47.4282 69.7634 47.8464 69.3421C48.2647 68.9209 48.4997 68.3496 48.4997 67.7539C48.4997 67.1581 48.2647 66.5868 47.8464 66.1656C47.4282 65.7444 46.8609 65.5077 46.2693 65.5077ZM7.4582 12.7304C7.4582 9.84193 9.79133 7.49228 12.6594 7.49228H16.4712V50.5418C13.3628 50.5418 10.2099 50.3073 7.4582 52.0708V12.7304Z" fill="#F70000"/>
<path d="M70.5393 63.257C72.7698 60.8163 74.0033 57.6424 73.9999 54.3522C74.0049 52.5955 73.6568 50.8553 72.976 49.2328C72.2952 47.6102 71.2953 46.1377 70.0342 44.9008C68.7881 43.6616 67.3062 42.6788 65.6741 42.0093C64.042 41.3398 62.2919 40.9968 60.525 41H60.4825C56.8893 41 53.5137 42.3852 50.9657 44.9008C49.7058 46.1386 48.7066 47.6112 48.0259 49.2336C47.3452 50.8559 46.9965 52.5957 47 54.3522C47 57.6495 48.2302 60.8106 50.4607 63.252C51.5559 64.4566 52.1585 65.9457 52.1585 67.4397C52.1535 68.9486 52.1526 70.4566 52.156 71.9639C52.1586 73.2987 52.6958 74.5782 53.65 75.5221C54.6041 76.466 55.8975 76.9974 57.2469 77H63.7556C65.105 76.9974 66.3983 76.466 67.3525 75.5221C68.3067 74.5782 68.8439 73.2987 68.8465 71.9639C68.8498 70.455 68.849 68.947 68.844 67.4397C68.844 65.9433 69.4466 64.4567 70.5393 63.257ZM51.5033 54.3522C51.5033 51.9727 52.441 49.7341 54.1463 48.0496C54.9773 47.2228 55.9659 46.5675 57.0549 46.1217C58.1438 45.6758 59.3114 45.4483 60.49 45.4524H60.5175C62.9079 45.4524 65.1558 46.3726 66.8536 48.0496C67.6936 48.8751 68.3598 49.8571 68.8134 50.939C69.2671 52.0208 69.4993 53.181 69.4966 54.3522C69.5002 56.5403 68.6801 58.6513 67.1962 60.2739C65.8047 61.7831 64.8706 63.6492 64.5007 65.6588H56.5018C56.1278 63.6493 55.1933 61.7832 53.8038 60.2714C52.3205 58.6494 51.5004 56.5394 51.5033 54.3522ZM63.7556 72.5476H57.2469C57.0911 72.5476 56.9416 72.4864 56.8314 72.3774C56.7212 72.2684 56.6593 72.1205 56.6593 71.9663V70.1186H64.3432V71.9663C64.3432 72.1205 64.2813 72.2684 64.1711 72.3774C64.0609 72.4864 63.9114 72.5476 63.7556 72.5476Z" fill="#F70000"/>
</svg>
