<svg width="80" height="80" viewBox="0 0 80 80" fill="none" xmlns="http://www.w3.org/2000/svg">
<g clip-path="url(#clip0_36_426)">
<path d="M7.85691 67.0927C7.85704 72.1448 12.0897 76.0302 17.0464 76.0302H32.3647V70.0302H17.0464C15.1664 70.0302 13.857 68.5989 13.8569 67.0927V30.1298H7.85691V67.0927Z" fill="white"/>
<path d="M47.469 46.3106C47.4689 47.8168 46.1595 49.2481 44.2796 49.2481C42.3996 49.2481 41.0902 47.8169 41.0901 46.3106C41.0901 44.8043 42.3995 43.3731 44.2796 43.3731C46.1596 43.3732 47.469 44.8043 47.469 46.3106ZM53.469 46.3106C53.469 41.2585 49.2362 37.3732 44.2796 37.3731C39.3228 37.3731 35.0901 41.2584 35.0901 46.3106C35.0902 51.3627 39.3229 55.2481 44.2796 55.2481C49.2362 55.2481 53.4689 51.3627 53.469 46.3106Z" fill="white"/>
<path d="M73.0002 67.0927C73 68.5989 71.6906 70.0301 69.8107 70.0302C67.9308 70.0302 66.6214 68.5989 66.6213 67.0927C66.6213 65.5863 67.9307 64.1552 69.8107 64.1552C71.6907 64.1552 73.0002 65.5864 73.0002 67.0927ZM79.0002 67.0927C79.0002 62.0405 74.7674 58.1552 69.8107 58.1552C64.854 58.1552 60.6213 62.0405 60.6213 67.0927C60.6214 72.1448 64.8541 76.0302 69.8107 76.0302C74.7673 76.0301 79 72.1447 79.0002 67.0927Z" fill="white"/>
<path d="M49.6952 75.9989L71.5128 37.1067H64.4771L42.6596 75.9989H49.6952Z" fill="white"/>
<path d="M38.9617 70.0612H30.5081V75.9989H35.6309L38.9617 70.0612Z" fill="white"/>
<path d="M75.2684 31.1697L39.6376 -0.0141602L-0.0137939 34.6884L4.15769 39.0749L39.6376 8.02317L66.0848 31.1697H75.2684Z" fill="white"/>
</g>
<defs>
<clipPath id="clip0_36_426">
<rect width="80" height="80" fill="white"/>
</clipPath>
</defs>
</svg>
