<svg width="80" height="80" viewBox="0 0 80 80" fill="none" xmlns="http://www.w3.org/2000/svg">
<path d="M40 4C20.1493 4 4 20.1493 4 40C4 40.7794 4.30962 41.5269 4.86075 42.078C5.41187 42.6292 6.15936 42.9388 6.93878 42.9388C7.71819 42.9388 8.46568 42.6292 9.0168 42.078C9.56793 41.5269 9.87755 40.7794 9.87755 40C9.87755 23.3908 23.3908 9.87755 40 9.87755C56.6092 9.87755 70.1225 23.3908 70.1225 40C70.1225 56.6092 56.6092 70.1225 40 70.1225C39.2206 70.1225 38.4731 70.4321 37.922 70.9832C37.3708 71.5343 37.0612 72.2818 37.0612 73.0612C37.0612 73.8406 37.3708 74.5881 37.922 75.1393C38.4731 75.6904 39.2206 76 40 76C59.8507 76 76 59.8507 76 40C76 20.1493 59.8507 4 40 4Z" fill="#F70000"/>
<path d="M39.9862 25C39.207 25 38.4598 25.31 37.9089 25.8618C37.358 26.4136 37.0485 27.162 37.0485 27.9423V39.9566C37.0485 40.737 37.3584 41.4851 37.9092 42.0375L51.9857 56.1364C52.5585 56.7109 53.3113 56.9977 54.0626 56.9977C54.8139 56.9977 55.5667 56.7101 56.1395 56.1364C56.4123 55.8632 56.6287 55.5388 56.7764 55.1818C56.924 54.8248 57 54.4422 57 54.0558C57 53.6694 56.924 53.2868 56.7764 52.9298C56.6287 52.5728 56.4123 52.2484 56.1395 51.9752L42.9238 38.7377V27.9423C42.9238 27.162 42.6143 26.4136 42.0634 25.8618C41.5125 25.31 40.7653 25 39.9862 25ZM30.1942 70.1154H6.93764C6.15853 70.1154 5.41133 70.4253 4.86042 70.9771C4.3095 71.5289 4 72.2773 4 73.0577C4 73.838 4.3095 74.5864 4.86042 75.1382C5.41133 75.69 6.15853 76 6.93764 76H30.1942C30.9734 76 31.7206 75.69 32.2715 75.1382C32.8224 74.5864 33.1319 73.838 33.1319 73.0577C33.1319 72.2773 32.8224 71.5289 32.2715 70.9771C31.7206 70.4253 30.9734 70.1154 30.1942 70.1154ZM22.8501 59.0816H6.93764C6.15853 59.0816 5.41133 59.3916 4.86042 59.9434C4.3095 60.4952 4 61.2436 4 62.024C4 62.8043 4.3095 63.5527 4.86042 64.1045C5.41133 64.6563 6.15853 64.9663 6.93764 64.9663H22.8501C23.6292 64.9663 24.3764 64.6563 24.9274 64.1045C25.4783 63.5527 25.7878 62.8043 25.7878 62.024C25.7878 61.2436 25.4783 60.4952 24.9274 59.9434C24.3764 59.3916 23.6292 59.0816 22.8501 59.0816ZM15.506 48.0479H6.93764C6.15853 48.0479 5.41133 48.3579 4.86042 48.9097C4.3095 49.4615 4 50.2099 4 50.9903C4 51.7706 4.3095 52.519 4.86042 53.0708C5.41133 53.6226 6.15853 53.9326 6.93764 53.9326H15.506C16.2851 53.9326 17.0323 53.6226 17.5832 53.0708C18.1342 52.519 18.4437 51.7706 18.4437 50.9903C18.4437 50.2099 18.1342 49.4615 17.5832 48.9097C17.0323 48.3579 16.2851 48.0479 15.506 48.0479Z" fill="#F70000"/>
</svg>
