<svg width="60" height="60" viewBox="0 0 60 60" fill="none" xmlns="http://www.w3.org/2000/svg">
<g clip-path="url(#clip0_36_456)">
<path d="M5.13215 53.2251C5.13215 56.9169 8.12497 59.9099 11.817 59.9099H28.8912V56.1599H11.817C10.1961 56.1599 8.88215 54.8459 8.88215 53.2251V23.4046H5.13215V53.2251Z" fill="#F70000"/>
<path d="M5.13215 53.2251C5.13215 56.9169 8.12497 59.9099 11.817 59.9099H28.8912V56.1599H11.817C10.1961 56.1599 8.88215 54.8459 8.88215 53.2251V23.4046H5.13215V53.2251Z" fill="url(#paint0_radial_36_456)" fill-opacity="0.7"/>
<path d="M5.13215 53.2251C5.13215 56.9169 8.12497 59.9099 11.817 59.9099H28.8912V56.1599H11.817C10.1961 56.1599 8.88215 54.8459 8.88215 53.2251V23.4046H5.13215V53.2251Z" fill="url(#paint1_radial_36_456)"/>
<path d="M29.3722 4.7804L47.8915 21.6744L50.4183 18.9037L29.3722 -0.296021L-0.692261 27.131L1.83533 29.9017L29.3722 4.7804Z" fill="#F70000"/>
<path d="M29.3722 4.7804L47.8915 21.6744L50.4183 18.9037L29.3722 -0.296021L-0.692261 27.131L1.83533 29.9017L29.3722 4.7804Z" fill="url(#paint2_radial_36_456)" fill-opacity="0.7"/>
<path d="M29.3722 4.7804L47.8915 21.6744L50.4183 18.9037L29.3722 -0.296021L-0.692261 27.131L1.83533 29.9017L29.3722 4.7804Z" fill="url(#paint3_radial_36_456)"/>
<path d="M55.8753 24.8474C55.8753 25.0828 55.6355 25.8008 54.094 26.5716C52.6647 27.2862 50.559 27.7822 48.1306 27.7822C45.7024 27.7822 43.5966 27.2861 42.1673 26.5716C40.6258 25.8008 40.386 25.0828 40.386 24.8474C40.386 24.612 40.6259 23.894 42.1673 23.1233C43.5966 22.4087 45.7024 21.9126 48.1306 21.9126C50.5589 21.9126 52.6647 22.4087 54.094 23.1233C55.6354 23.894 55.8752 24.612 55.8753 24.8474ZM59.6253 24.8474C59.6252 22.4266 57.7113 20.7396 55.7713 19.7696C53.719 18.7434 51.0149 18.1626 48.1306 18.1626C45.2463 18.1626 42.5423 18.7434 40.49 19.7696C38.5499 20.7396 36.636 22.4265 36.636 24.8474C36.636 27.2684 38.5499 28.9552 40.49 29.9253C42.5423 30.9515 45.2463 31.5322 48.1306 31.5322C51.0149 31.5322 53.719 30.9514 55.7713 29.9253C57.7113 28.9552 59.6253 27.2683 59.6253 24.8474Z" fill="#F70000"/>
<path d="M55.8753 24.8474C55.8753 25.0828 55.6355 25.8008 54.094 26.5716C52.6647 27.2862 50.559 27.7822 48.1306 27.7822C45.7024 27.7822 43.5966 27.2861 42.1673 26.5716C40.6258 25.8008 40.386 25.0828 40.386 24.8474C40.386 24.612 40.6259 23.894 42.1673 23.1233C43.5966 22.4087 45.7024 21.9126 48.1306 21.9126C50.5589 21.9126 52.6647 22.4087 54.094 23.1233C55.6354 23.894 55.8752 24.612 55.8753 24.8474ZM59.6253 24.8474C59.6252 22.4266 57.7113 20.7396 55.7713 19.7696C53.719 18.7434 51.0149 18.1626 48.1306 18.1626C45.2463 18.1626 42.5423 18.7434 40.49 19.7696C38.5499 20.7396 36.636 22.4265 36.636 24.8474C36.636 27.2684 38.5499 28.9552 40.49 29.9253C42.5423 30.9515 45.2463 31.5322 48.1306 31.5322C51.0149 31.5322 53.719 30.9514 55.7713 29.9253C57.7113 28.9552 59.6253 27.2683 59.6253 24.8474Z" fill="url(#paint4_radial_36_456)" fill-opacity="0.7"/>
<path d="M55.8753 24.8474C55.8753 25.0828 55.6355 25.8008 54.094 26.5716C52.6647 27.2862 50.559 27.7822 48.1306 27.7822C45.7024 27.7822 43.5966 27.2861 42.1673 26.5716C40.6258 25.8008 40.386 25.0828 40.386 24.8474C40.386 24.612 40.6259 23.894 42.1673 23.1233C43.5966 22.4087 45.7024 21.9126 48.1306 21.9126C50.5589 21.9126 52.6647 22.4087 54.094 23.1233C55.6354 23.894 55.8752 24.612 55.8753 24.8474ZM59.6253 24.8474C59.6252 22.4266 57.7113 20.7396 55.7713 19.7696C53.719 18.7434 51.0149 18.1626 48.1306 18.1626C45.2463 18.1626 42.5423 18.7434 40.49 19.7696C38.5499 20.7396 36.636 22.4265 36.636 24.8474C36.636 27.2684 38.5499 28.9552 40.49 29.9253C42.5423 30.9515 45.2463 31.5322 48.1306 31.5322C51.0149 31.5322 53.719 30.9514 55.7713 29.9253C57.7113 28.9552 59.6253 27.2683 59.6253 24.8474Z" fill="url(#paint5_radial_36_456)"/>
<path d="M48.1306 41.1516C51.0149 41.1516 53.719 40.5708 55.7713 39.5447C57.7113 38.5746 59.6253 36.8877 59.6253 34.4668H55.8753C55.8753 34.7022 55.6355 35.4202 54.094 36.191C52.6647 36.9056 50.559 37.4016 48.1306 37.4016C45.7024 37.4016 43.5966 36.9056 42.1673 36.191C40.6258 35.4202 40.386 34.7022 40.386 34.4668H36.636C36.636 36.8878 38.5499 38.5746 40.49 39.5447C42.5423 40.5709 45.2463 41.1516 48.1306 41.1516Z" fill="#F70000"/>
<path d="M48.1306 41.1516C51.0149 41.1516 53.719 40.5708 55.7713 39.5447C57.7113 38.5746 59.6253 36.8877 59.6253 34.4668H55.8753C55.8753 34.7022 55.6355 35.4202 54.094 36.191C52.6647 36.9056 50.559 37.4016 48.1306 37.4016C45.7024 37.4016 43.5966 36.9056 42.1673 36.191C40.6258 35.4202 40.386 34.7022 40.386 34.4668H36.636C36.636 36.8878 38.5499 38.5746 40.49 39.5447C42.5423 40.5709 45.2463 41.1516 48.1306 41.1516Z" fill="url(#paint6_radial_36_456)" fill-opacity="0.7"/>
<path d="M48.1306 41.1516C51.0149 41.1516 53.719 40.5708 55.7713 39.5447C57.7113 38.5746 59.6253 36.8877 59.6253 34.4668H55.8753C55.8753 34.7022 55.6355 35.4202 54.094 36.191C52.6647 36.9056 50.559 37.4016 48.1306 37.4016C45.7024 37.4016 43.5966 36.9056 42.1673 36.191C40.6258 35.4202 40.386 34.7022 40.386 34.4668H36.636C36.636 36.8878 38.5499 38.5746 40.49 39.5447C42.5423 40.5709 45.2463 41.1516 48.1306 41.1516Z" fill="url(#paint7_radial_36_456)"/>
<path d="M48.1306 50.4105C51.0149 50.4105 53.719 49.8297 55.7713 48.8036C57.7113 47.8335 59.6253 46.1465 59.6253 43.7257H55.8753C55.8753 43.961 55.6355 44.6791 54.094 45.4498C52.6647 46.1644 50.559 46.6605 48.1306 46.6605C45.7024 46.6605 43.5966 46.1644 42.1673 45.4498C40.6258 44.6791 40.386 43.961 40.386 43.7257H36.636C36.636 46.1466 38.5499 47.8335 40.49 48.8036C42.5423 49.8297 45.2463 50.4105 48.1306 50.4105Z" fill="#F70000"/>
<path d="M48.1306 50.4105C51.0149 50.4105 53.719 49.8297 55.7713 48.8036C57.7113 47.8335 59.6253 46.1465 59.6253 43.7257H55.8753C55.8753 43.961 55.6355 44.6791 54.094 45.4498C52.6647 46.1644 50.559 46.6605 48.1306 46.6605C45.7024 46.6605 43.5966 46.1644 42.1673 45.4498C40.6258 44.6791 40.386 43.961 40.386 43.7257H36.636C36.636 46.1466 38.5499 47.8335 40.49 48.8036C42.5423 49.8297 45.2463 50.4105 48.1306 50.4105Z" fill="url(#paint8_radial_36_456)" fill-opacity="0.7"/>
<path d="M48.1306 50.4105C51.0149 50.4105 53.719 49.8297 55.7713 48.8036C57.7113 47.8335 59.6253 46.1465 59.6253 43.7257H55.8753C55.8753 43.961 55.6355 44.6791 54.094 45.4498C52.6647 46.1644 50.559 46.6605 48.1306 46.6605C45.7024 46.6605 43.5966 46.1644 42.1673 45.4498C40.6258 44.6791 40.386 43.961 40.386 43.7257H36.636C36.636 46.1466 38.5499 47.8335 40.49 48.8036C42.5423 49.8297 45.2463 50.4105 48.1306 50.4105Z" fill="url(#paint9_radial_36_456)"/>
<path d="M55.8753 53.2251C55.8753 53.4605 55.6355 54.1785 54.094 54.9492C52.6647 55.6639 50.559 56.1599 48.1306 56.1599C45.7024 56.1599 43.5966 55.6638 42.1673 54.9492C40.6258 54.1785 40.386 53.4605 40.386 53.2251V25.2085H36.636V53.2251C36.636 55.646 38.5499 57.3329 40.49 58.303C42.5423 59.3291 45.2463 59.9099 48.1306 59.9099C51.0149 59.9099 53.719 59.3291 55.7713 58.303C57.7113 57.3329 59.6253 55.646 59.6253 53.2251V25.2085H55.8753V53.2251Z" fill="#F70000"/>
<path d="M55.8753 53.2251C55.8753 53.4605 55.6355 54.1785 54.094 54.9492C52.6647 55.6639 50.559 56.1599 48.1306 56.1599C45.7024 56.1599 43.5966 55.6638 42.1673 54.9492C40.6258 54.1785 40.386 53.4605 40.386 53.2251V25.2085H36.636V53.2251C36.636 55.646 38.5499 57.3329 40.49 58.303C42.5423 59.3291 45.2463 59.9099 48.1306 59.9099C51.0149 59.9099 53.719 59.3291 55.7713 58.303C57.7113 57.3329 59.6253 55.646 59.6253 53.2251V25.2085H55.8753V53.2251Z" fill="url(#paint10_radial_36_456)" fill-opacity="0.7"/>
<path d="M55.8753 53.2251C55.8753 53.4605 55.6355 54.1785 54.094 54.9492C52.6647 55.6639 50.559 56.1599 48.1306 56.1599C45.7024 56.1599 43.5966 55.6638 42.1673 54.9492C40.6258 54.1785 40.386 53.4605 40.386 53.2251V25.2085H36.636V53.2251C36.636 55.646 38.5499 57.3329 40.49 58.303C42.5423 59.3291 45.2463 59.9099 48.1306 59.9099C51.0149 59.9099 53.719 59.3291 55.7713 58.303C57.7113 57.3329 59.6253 55.646 59.6253 53.2251V25.2085H55.8753V53.2251Z" fill="url(#paint11_radial_36_456)"/>
<path d="M36.6363 43.8458C36.6363 44.063 36.4203 44.7538 34.8785 45.4981C33.4482 46.1886 31.3357 46.6605 28.8916 46.6605C26.4634 46.6605 24.3576 46.1644 22.9283 45.4498C21.3868 44.6791 21.147 43.961 21.147 43.7257C21.147 43.4903 21.3869 42.7722 22.9283 42.0015C24.3576 41.287 26.4634 40.7909 28.8916 40.7909C31.3043 40.7909 33.4036 41.3108 34.8323 42.0499C36.3733 42.847 36.6361 43.5927 36.6363 43.8458ZM40.3863 43.8458C40.3862 41.4425 38.4951 39.7232 36.555 38.7196C34.5022 37.6577 31.7916 37.0409 28.8916 37.0409C26.0073 37.0409 23.3033 37.6217 21.251 38.6478C19.3109 39.6178 17.397 41.3047 17.397 43.7257C17.397 46.1466 19.3109 47.8335 21.251 48.8036C23.3033 49.8297 26.0073 50.4105 28.8916 50.4105C31.7602 50.4105 34.4575 49.8656 36.5088 48.8753C38.4483 47.939 40.3863 46.2848 40.3863 43.8458Z" fill="#F70000"/>
<path d="M36.6363 43.8458C36.6363 44.063 36.4203 44.7538 34.8785 45.4981C33.4482 46.1886 31.3357 46.6605 28.8916 46.6605C26.4634 46.6605 24.3576 46.1644 22.9283 45.4498C21.3868 44.6791 21.147 43.961 21.147 43.7257C21.147 43.4903 21.3869 42.7722 22.9283 42.0015C24.3576 41.287 26.4634 40.7909 28.8916 40.7909C31.3043 40.7909 33.4036 41.3108 34.8323 42.0499C36.3733 42.847 36.6361 43.5927 36.6363 43.8458ZM40.3863 43.8458C40.3862 41.4425 38.4951 39.7232 36.555 38.7196C34.5022 37.6577 31.7916 37.0409 28.8916 37.0409C26.0073 37.0409 23.3033 37.6217 21.251 38.6478C19.3109 39.6178 17.397 41.3047 17.397 43.7257C17.397 46.1466 19.3109 47.8335 21.251 48.8036C23.3033 49.8297 26.0073 50.4105 28.8916 50.4105C31.7602 50.4105 34.4575 49.8656 36.5088 48.8753C38.4483 47.939 40.3863 46.2848 40.3863 43.8458Z" fill="url(#paint12_radial_36_456)" fill-opacity="0.7"/>
<path d="M36.6363 43.8458C36.6363 44.063 36.4203 44.7538 34.8785 45.4981C33.4482 46.1886 31.3357 46.6605 28.8916 46.6605C26.4634 46.6605 24.3576 46.1644 22.9283 45.4498C21.3868 44.6791 21.147 43.961 21.147 43.7257C21.147 43.4903 21.3869 42.7722 22.9283 42.0015C24.3576 41.287 26.4634 40.7909 28.8916 40.7909C31.3043 40.7909 33.4036 41.3108 34.8323 42.0499C36.3733 42.847 36.6361 43.5927 36.6363 43.8458ZM40.3863 43.8458C40.3862 41.4425 38.4951 39.7232 36.555 38.7196C34.5022 37.6577 31.7916 37.0409 28.8916 37.0409C26.0073 37.0409 23.3033 37.6217 21.251 38.6478C19.3109 39.6178 17.397 41.3047 17.397 43.7257C17.397 46.1466 19.3109 47.8335 21.251 48.8036C23.3033 49.8297 26.0073 50.4105 28.8916 50.4105C31.7602 50.4105 34.4575 49.8656 36.5088 48.8753C38.4483 47.939 40.3863 46.2848 40.3863 43.8458Z" fill="url(#paint13_radial_36_456)"/>
<path d="M36.636 53.2251C36.636 53.4605 36.3965 54.1785 34.855 54.9492C33.4257 55.6639 31.3195 56.1599 28.8912 56.1599C26.4629 56.1599 24.3576 55.6638 22.9283 54.9492C21.3868 54.1785 21.147 53.4605 21.147 53.2251V43.8464H17.397V53.2251C17.397 55.646 19.3109 57.3329 21.251 58.303C23.3033 59.3291 26.0068 59.9099 28.8912 59.9099C31.7755 59.9099 34.48 59.3291 36.5323 58.303C38.4723 57.3329 40.386 55.646 40.386 53.2251L40.3863 43.8458H36.6363L36.636 53.2251Z" fill="#F70000"/>
<path d="M36.636 53.2251C36.636 53.4605 36.3965 54.1785 34.855 54.9492C33.4257 55.6639 31.3195 56.1599 28.8912 56.1599C26.4629 56.1599 24.3576 55.6638 22.9283 54.9492C21.3868 54.1785 21.147 53.4605 21.147 53.2251V43.8464H17.397V53.2251C17.397 55.646 19.3109 57.3329 21.251 58.303C23.3033 59.3291 26.0068 59.9099 28.8912 59.9099C31.7755 59.9099 34.48 59.3291 36.5323 58.303C38.4723 57.3329 40.386 55.646 40.386 53.2251L40.3863 43.8458H36.6363L36.636 53.2251Z" fill="url(#paint14_radial_36_456)" fill-opacity="0.7"/>
<path d="M36.636 53.2251C36.636 53.4605 36.3965 54.1785 34.855 54.9492C33.4257 55.6639 31.3195 56.1599 28.8912 56.1599C26.4629 56.1599 24.3576 55.6638 22.9283 54.9492C21.3868 54.1785 21.147 53.4605 21.147 53.2251V43.8464H17.397V53.2251C17.397 55.646 19.3109 57.3329 21.251 58.303C23.3033 59.3291 26.0068 59.9099 28.8912 59.9099C31.7755 59.9099 34.48 59.3291 36.5323 58.303C38.4723 57.3329 40.386 55.646 40.386 53.2251L40.3863 43.8458H36.6363L36.636 53.2251Z" fill="url(#paint15_radial_36_456)"/>
</g>
<defs>
<radialGradient id="paint0_radial_36_456" cx="0" cy="0" r="1" gradientTransform="matrix(31.8343 39.3011 -39.3739 31.7754 15.2249 12.2469)" gradientUnits="userSpaceOnUse">
<stop stop-color="white" stop-opacity="0.59"/>
<stop offset="0.697917" stop-color="white" stop-opacity="0"/>
<stop offset="1" stop-color="white" stop-opacity="0"/>
</radialGradient>
<radialGradient id="paint1_radial_36_456" cx="0" cy="0" r="1" gradientTransform="matrix(-3.30507 -51.4259 -55.5442 32.9043 51.3626 52.3842)" gradientUnits="userSpaceOnUse">
<stop stop-opacity="0.23"/>
<stop offset="0.861815" stop-opacity="0"/>
</radialGradient>
<radialGradient id="paint2_radial_36_456" cx="0" cy="0" r="1" gradientTransform="matrix(31.8343 39.3011 -39.3739 31.7754 15.2249 12.2469)" gradientUnits="userSpaceOnUse">
<stop stop-color="white" stop-opacity="0.59"/>
<stop offset="0.697917" stop-color="white" stop-opacity="0"/>
<stop offset="1" stop-color="white" stop-opacity="0"/>
</radialGradient>
<radialGradient id="paint3_radial_36_456" cx="0" cy="0" r="1" gradientTransform="matrix(-3.30507 -51.4259 -55.5442 32.9043 51.3626 52.3842)" gradientUnits="userSpaceOnUse">
<stop stop-opacity="0.23"/>
<stop offset="0.861815" stop-opacity="0"/>
</radialGradient>
<radialGradient id="paint4_radial_36_456" cx="0" cy="0" r="1" gradientTransform="matrix(31.8343 39.3011 -39.3739 31.7754 15.2249 12.2469)" gradientUnits="userSpaceOnUse">
<stop stop-color="white" stop-opacity="0.59"/>
<stop offset="0.697917" stop-color="white" stop-opacity="0"/>
<stop offset="1" stop-color="white" stop-opacity="0"/>
</radialGradient>
<radialGradient id="paint5_radial_36_456" cx="0" cy="0" r="1" gradientTransform="matrix(-3.30507 -51.4259 -55.5442 32.9043 51.3626 52.3842)" gradientUnits="userSpaceOnUse">
<stop stop-opacity="0.23"/>
<stop offset="0.861815" stop-opacity="0"/>
</radialGradient>
<radialGradient id="paint6_radial_36_456" cx="0" cy="0" r="1" gradientTransform="matrix(31.8343 39.3011 -39.3739 31.7754 15.2249 12.2469)" gradientUnits="userSpaceOnUse">
<stop stop-color="white" stop-opacity="0.59"/>
<stop offset="0.697917" stop-color="white" stop-opacity="0"/>
<stop offset="1" stop-color="white" stop-opacity="0"/>
</radialGradient>
<radialGradient id="paint7_radial_36_456" cx="0" cy="0" r="1" gradientTransform="matrix(-3.30507 -51.4259 -55.5442 32.9043 51.3626 52.3842)" gradientUnits="userSpaceOnUse">
<stop stop-opacity="0.23"/>
<stop offset="0.861815" stop-opacity="0"/>
</radialGradient>
<radialGradient id="paint8_radial_36_456" cx="0" cy="0" r="1" gradientTransform="matrix(31.8343 39.3011 -39.3739 31.7754 15.2249 12.2469)" gradientUnits="userSpaceOnUse">
<stop stop-color="white" stop-opacity="0.59"/>
<stop offset="0.697917" stop-color="white" stop-opacity="0"/>
<stop offset="1" stop-color="white" stop-opacity="0"/>
</radialGradient>
<radialGradient id="paint9_radial_36_456" cx="0" cy="0" r="1" gradientTransform="matrix(-3.30507 -51.4259 -55.5442 32.9043 51.3626 52.3842)" gradientUnits="userSpaceOnUse">
<stop stop-opacity="0.23"/>
<stop offset="0.861815" stop-opacity="0"/>
</radialGradient>
<radialGradient id="paint10_radial_36_456" cx="0" cy="0" r="1" gradientTransform="matrix(31.8343 39.3011 -39.3739 31.7754 15.2249 12.2469)" gradientUnits="userSpaceOnUse">
<stop stop-color="white" stop-opacity="0.59"/>
<stop offset="0.697917" stop-color="white" stop-opacity="0"/>
<stop offset="1" stop-color="white" stop-opacity="0"/>
</radialGradient>
<radialGradient id="paint11_radial_36_456" cx="0" cy="0" r="1" gradientTransform="matrix(-3.30507 -51.4259 -55.5442 32.9043 51.3626 52.3842)" gradientUnits="userSpaceOnUse">
<stop stop-opacity="0.23"/>
<stop offset="0.861815" stop-opacity="0"/>
</radialGradient>
<radialGradient id="paint12_radial_36_456" cx="0" cy="0" r="1" gradientTransform="matrix(31.8343 39.3011 -39.3739 31.7754 15.2249 12.2469)" gradientUnits="userSpaceOnUse">
<stop stop-color="white" stop-opacity="0.59"/>
<stop offset="0.697917" stop-color="white" stop-opacity="0"/>
<stop offset="1" stop-color="white" stop-opacity="0"/>
</radialGradient>
<radialGradient id="paint13_radial_36_456" cx="0" cy="0" r="1" gradientTransform="matrix(-3.30507 -51.4259 -55.5442 32.9043 51.3626 52.3842)" gradientUnits="userSpaceOnUse">
<stop stop-opacity="0.23"/>
<stop offset="0.861815" stop-opacity="0"/>
</radialGradient>
<radialGradient id="paint14_radial_36_456" cx="0" cy="0" r="1" gradientTransform="matrix(31.8343 39.3011 -39.3739 31.7754 15.2249 12.2469)" gradientUnits="userSpaceOnUse">
<stop stop-color="white" stop-opacity="0.59"/>
<stop offset="0.697917" stop-color="white" stop-opacity="0"/>
<stop offset="1" stop-color="white" stop-opacity="0"/>
</radialGradient>
<radialGradient id="paint15_radial_36_456" cx="0" cy="0" r="1" gradientTransform="matrix(-3.30507 -51.4259 -55.5442 32.9043 51.3626 52.3842)" gradientUnits="userSpaceOnUse">
<stop stop-opacity="0.23"/>
<stop offset="0.861815" stop-opacity="0"/>
</radialGradient>
<clipPath id="clip0_36_456">
<rect width="60" height="60" fill="white"/>
</clipPath>
</defs>
</svg>
