<svg width="80" height="80" viewBox="0 0 80 80" fill="none" xmlns="http://www.w3.org/2000/svg">
<path d="M70.7004 65.7529C70.3985 65.7529 70.0996 65.8123 69.8207 65.9278C69.5419 66.0434 69.2885 66.2127 69.0752 66.4261C68.8619 66.6395 68.6927 66.8928 68.5774 67.1716C68.4621 67.4504 68.403 67.7492 68.4033 68.0508C68.4019 69.4725 67.8364 70.8355 66.8306 71.841C65.8249 72.8465 64.4611 73.4123 63.0384 73.4143H16.9667C15.5506 73.4117 14.1927 72.851 13.1878 71.854C12.1828 70.857 11.612 69.5041 11.5992 68.0891L11.6069 68.0508C11.6069 66.6353 12.1735 65.2581 13.1562 64.2736C14.1771 63.2535 15.5323 62.6924 16.9667 62.6924H63.0307C68.5182 62.6924 72.9847 58.2291 72.9847 52.7457V11.9466C72.9847 6.46324 68.5182 2 63.0307 2H16.9718C14.3316 2.00337 11.8004 3.05294 9.93344 4.91853C8.06648 6.78411 7.01614 9.31341 7.01276 11.9517V67.9182C7.01276 67.959 7 67.9998 7 68.0406C7.00338 70.681 8.05453 73.2122 9.92292 75.0792C11.7913 76.9463 14.3244 77.9966 16.9667 78H63.0409C65.6815 77.9946 68.2122 76.9437 70.0789 75.0774C71.9456 73.2112 72.996 70.6818 73 68.0432C72.9986 67.4348 72.7557 66.8519 72.3245 66.4225C71.8933 65.993 71.3092 65.7522 70.7004 65.7529ZM11.6069 11.9517C11.6069 8.99581 14.0112 6.58821 16.9718 6.58821H63.0333C65.9888 6.58821 68.3931 8.99071 68.3931 11.9441V52.7406C68.3931 55.694 65.9914 58.0965 63.0333 58.0965H17.0025C15.1572 58.0583 13.1562 58.6653 11.6069 59.6574V11.9517Z" fill="#F70000"/>
<path d="M27.1383 47.631C27.6782 47.9751 28.3279 48.0829 28.9444 47.9306C29.5609 47.7784 30.0939 47.3786 30.426 46.8192C31.9291 44.2846 35.777 42.5812 39.9994 42.5812C44.2219 42.5812 48.0698 44.2846 49.5729 46.8192C49.9046 47.379 50.4374 47.7793 51.0539 47.9321C51.6705 48.0849 52.3203 47.9775 52.8605 47.6338C53.4007 47.29 53.7871 46.7379 53.9345 46.099C54.0819 45.4601 53.9783 44.7867 53.6466 44.2269C52.4649 42.2317 50.5422 40.5915 48.1814 39.444C50.9963 37.003 52.8287 33.3841 52.8287 29.292C52.8287 21.9607 47.074 16 39.9994 16C32.9249 16 27.1702 21.9635 27.1702 29.292C27.1702 33.3841 29.0026 37.0057 31.8175 39.444C29.4567 40.5915 27.534 42.2317 26.3523 44.2269C26.0213 44.7864 25.9182 45.4592 26.0656 46.0975C26.213 46.7358 26.5988 47.2873 27.1383 47.631ZM31.9556 29.2892C31.9556 24.6907 35.5646 20.9508 40.0021 20.9508C44.4396 20.9508 48.0486 24.6907 48.0486 29.2892C48.0486 33.8877 44.4396 37.6277 40.0021 37.6277C35.5646 37.6277 31.9556 33.8877 31.9556 29.2892Z" fill="#F70000"/>
</svg>
