<svg width="80" height="80" viewBox="0 0 80 80" fill="none" xmlns="http://www.w3.org/2000/svg">
<path d="M67.6909 2H25.3863C19.1504 2 14.0766 7.02045 14.0766 13.1918V14.9404H12.3097C6.07381 14.9404 1 19.9616 1 26.1328V56.2758C1 62.1945 5.66553 67.0554 11.548 67.4441L9.12663 72.9553C8.04041 75.4233 9.09082 76.7643 9.59249 77.2261C9.90967 77.5176 10.5958 78 11.6659 78C12.2894 78 13.0435 77.8363 13.9308 77.3751L32.9968 67.4694H54.6143C60.8502 67.4694 65.9234 62.4476 65.9234 56.2758V54.5284H67.6903C73.9262 54.5284 79 49.5072 79 43.3348V13.1918C79 7.0206 73.9269 2 67.6909 2ZM61.3531 56.2758C61.3531 59.9535 58.33 62.9465 54.6143 62.9465H32.434C32.0638 62.9465 31.6991 63.0354 31.3717 63.2056L14.5555 71.9423L17.118 66.1095C17.2692 65.7654 17.3315 65.3895 17.2993 65.0157C17.2671 64.6418 17.1414 64.2817 16.9336 63.9679C16.7257 63.6541 16.4422 63.3965 16.1086 63.2181C15.775 63.0398 15.4018 62.9465 15.0226 62.9465H12.3098C8.59403 62.9465 5.57031 59.9535 5.57031 56.2758V26.1328C5.57031 22.4551 8.59403 19.4633 12.3097 19.4633H54.6143C58.33 19.4633 61.3531 22.4557 61.3531 26.1328V56.2758ZM74.4297 43.3348C74.4297 47.0131 71.4066 50.0055 67.6909 50.0055H65.9234V26.1328C65.9234 20.5399 61.7567 15.8922 56.3341 15.0699C55.765 14.9833 55.19 14.94 54.6142 14.9404H18.647V13.1918C18.647 9.5147 21.6702 6.52293 25.3864 6.52293H67.6911C71.4066 6.52293 74.4297 9.5147 74.4297 13.1918V43.3348Z" fill="#F70000"/>
<path d="M16.8173 37C14.7123 37 13 38.7939 13 40.9994C13 43.2048 14.7123 45 16.8173 45C18.9228 45 20.6358 43.205 20.6358 40.9994C20.6358 38.7937 18.9227 37 16.8173 37ZM34.2248 37C32.1192 37 30.4057 38.7939 30.4057 40.9994C30.4057 43.2048 32.1192 45 34.2248 45C36.3303 45 38.0431 43.205 38.0431 40.9994C38.0431 38.7937 36.3302 37 34.2248 37ZM50.1809 37C48.0755 37 46.3626 38.7939 46.3626 40.9994C46.3626 43.2048 48.0755 45 50.1809 45C52.2863 45 54 43.205 54 40.9994C54 38.7937 52.2865 37 50.1809 37Z" fill="#F70000"/>
</svg>
