<svg width="60" height="60" viewBox="0 0 60 60" fill="none" xmlns="http://www.w3.org/2000/svg">
<g clip-path="url(#clip0_36_479)">
<path d="M59.4507 42.5242C55.6596 38.7332 49.4911 38.7331 45.6997 42.5242L43.0733 45.1507H38.5507C37.659 40.3565 33.3704 36.9355 27.8839 36.9355H9.83648C8.8009 36.9355 7.96148 37.775 7.96148 38.8105V40.6693H1.875C0.839414 40.6693 0 41.5088 0 42.5443V58.1251C0 59.1605 0.839414 60.0001 1.875 60.0001H43.85C44.3473 60.0001 44.8242 59.8025 45.1758 59.4509L59.4507 45.1758C59.6249 45.0018 59.763 44.7951 59.8573 44.5676C59.9515 44.3401 60 44.0963 60 43.85C60 43.6038 59.9515 43.36 59.8573 43.1325C59.763 42.905 59.6249 42.6983 59.4507 42.5242ZM3.75 44.4193H7.96148V56.2501H3.75V44.4193ZM43.0733 56.2501H11.7115V40.6855H27.8839C30.8321 40.6855 33.8093 42.2123 34.7017 45.1508H21.5971C20.5615 45.1508 19.7221 45.9903 19.7221 47.0258C19.7221 48.0612 20.5615 48.9008 21.5971 48.9008H43.85C44.3473 48.9008 44.8242 48.7032 45.1758 48.3516L48.3514 45.1761C50.2177 43.3099 53.0214 42.939 55.2602 44.0634L43.0733 56.2501ZM15.153 14.8292L16.5476 13.8291V27.6011C16.5476 29.8626 18.3874 31.7026 20.649 31.7026H39.351C41.6126 31.7026 43.4524 29.8627 43.4524 27.6011V13.8293L44.8468 14.8292C45.1647 15.0579 45.5464 15.1808 45.938 15.1807C46.5217 15.1807 47.0972 14.9088 47.4633 14.3982C48.0668 13.5567 47.8738 12.3853 47.0323 11.7818L31.0927 0.351401C30.7741 0.122972 30.392 0.00012207 30 0.00012207C29.608 0.00012207 29.2259 0.122972 28.9073 0.351401L12.9676 11.7818C12.1261 12.3851 11.9331 13.5567 12.5365 14.3982C13.1399 15.2395 14.3113 15.4327 15.153 14.8292ZM30 4.18238L39.7024 11.14V27.601C39.7024 27.7914 39.5415 27.9525 39.351 27.9525H31.875V20.7972C31.875 19.7617 31.0356 18.9222 30 18.9222C28.9644 18.9222 28.125 19.7617 28.125 20.7972V27.9525H20.649C20.4585 27.9525 20.2976 27.7916 20.2976 27.601V11.14L30 4.18238Z" fill="#F70000"/>
<path d="M59.4507 42.5242C55.6596 38.7332 49.4911 38.7331 45.6997 42.5242L43.0733 45.1507H38.5507C37.659 40.3565 33.3704 36.9355 27.8839 36.9355H9.83648C8.8009 36.9355 7.96148 37.775 7.96148 38.8105V40.6693H1.875C0.839414 40.6693 0 41.5088 0 42.5443V58.1251C0 59.1605 0.839414 60.0001 1.875 60.0001H43.85C44.3473 60.0001 44.8242 59.8025 45.1758 59.4509L59.4507 45.1758C59.6249 45.0018 59.763 44.7951 59.8573 44.5676C59.9515 44.3401 60 44.0963 60 43.85C60 43.6038 59.9515 43.36 59.8573 43.1325C59.763 42.905 59.6249 42.6983 59.4507 42.5242ZM3.75 44.4193H7.96148V56.2501H3.75V44.4193ZM43.0733 56.2501H11.7115V40.6855H27.8839C30.8321 40.6855 33.8093 42.2123 34.7017 45.1508H21.5971C20.5615 45.1508 19.7221 45.9903 19.7221 47.0258C19.7221 48.0612 20.5615 48.9008 21.5971 48.9008H43.85C44.3473 48.9008 44.8242 48.7032 45.1758 48.3516L48.3514 45.1761C50.2177 43.3099 53.0214 42.939 55.2602 44.0634L43.0733 56.2501ZM15.153 14.8292L16.5476 13.8291V27.6011C16.5476 29.8626 18.3874 31.7026 20.649 31.7026H39.351C41.6126 31.7026 43.4524 29.8627 43.4524 27.6011V13.8293L44.8468 14.8292C45.1647 15.0579 45.5464 15.1808 45.938 15.1807C46.5217 15.1807 47.0972 14.9088 47.4633 14.3982C48.0668 13.5567 47.8738 12.3853 47.0323 11.7818L31.0927 0.351401C30.7741 0.122972 30.392 0.00012207 30 0.00012207C29.608 0.00012207 29.2259 0.122972 28.9073 0.351401L12.9676 11.7818C12.1261 12.3851 11.9331 13.5567 12.5365 14.3982C13.1399 15.2395 14.3113 15.4327 15.153 14.8292ZM30 4.18238L39.7024 11.14V27.601C39.7024 27.7914 39.5415 27.9525 39.351 27.9525H31.875V20.7972C31.875 19.7617 31.0356 18.9222 30 18.9222C28.9644 18.9222 28.125 19.7617 28.125 20.7972V27.9525H20.649C20.4585 27.9525 20.2976 27.7916 20.2976 27.601V11.14L30 4.18238Z" fill="url(#paint0_radial_36_479)" fill-opacity="0.7"/>
<path d="M59.4507 42.5242C55.6596 38.7332 49.4911 38.7331 45.6997 42.5242L43.0733 45.1507H38.5507C37.659 40.3565 33.3704 36.9355 27.8839 36.9355H9.83648C8.8009 36.9355 7.96148 37.775 7.96148 38.8105V40.6693H1.875C0.839414 40.6693 0 41.5088 0 42.5443V58.1251C0 59.1605 0.839414 60.0001 1.875 60.0001H43.85C44.3473 60.0001 44.8242 59.8025 45.1758 59.4509L59.4507 45.1758C59.6249 45.0018 59.763 44.7951 59.8573 44.5676C59.9515 44.3401 60 44.0963 60 43.85C60 43.6038 59.9515 43.36 59.8573 43.1325C59.763 42.905 59.6249 42.6983 59.4507 42.5242ZM3.75 44.4193H7.96148V56.2501H3.75V44.4193ZM43.0733 56.2501H11.7115V40.6855H27.8839C30.8321 40.6855 33.8093 42.2123 34.7017 45.1508H21.5971C20.5615 45.1508 19.7221 45.9903 19.7221 47.0258C19.7221 48.0612 20.5615 48.9008 21.5971 48.9008H43.85C44.3473 48.9008 44.8242 48.7032 45.1758 48.3516L48.3514 45.1761C50.2177 43.3099 53.0214 42.939 55.2602 44.0634L43.0733 56.2501ZM15.153 14.8292L16.5476 13.8291V27.6011C16.5476 29.8626 18.3874 31.7026 20.649 31.7026H39.351C41.6126 31.7026 43.4524 29.8627 43.4524 27.6011V13.8293L44.8468 14.8292C45.1647 15.0579 45.5464 15.1808 45.938 15.1807C46.5217 15.1807 47.0972 14.9088 47.4633 14.3982C48.0668 13.5567 47.8738 12.3853 47.0323 11.7818L31.0927 0.351401C30.7741 0.122972 30.392 0.00012207 30 0.00012207C29.608 0.00012207 29.2259 0.122972 28.9073 0.351401L12.9676 11.7818C12.1261 12.3851 11.9331 13.5567 12.5365 14.3982C13.1399 15.2395 14.3113 15.4327 15.153 14.8292ZM30 4.18238L39.7024 11.14V27.601C39.7024 27.7914 39.5415 27.9525 39.351 27.9525H31.875V20.7972C31.875 19.7617 31.0356 18.9222 30 18.9222C28.9644 18.9222 28.125 19.7617 28.125 20.7972V27.9525H20.649C20.4585 27.9525 20.2976 27.7916 20.2976 27.601V11.14L30 4.18238Z" fill="url(#paint1_radial_36_479)"/>
</g>
<defs>
<radialGradient id="paint0_radial_36_479" cx="0" cy="0" r="1" gradientTransform="matrix(31.6667 39.1666 -39.1667 31.6666 15.8333 12.5001)" gradientUnits="userSpaceOnUse">
<stop stop-color="white" stop-opacity="0.59"/>
<stop offset="0.697917" stop-color="white" stop-opacity="0"/>
<stop offset="1" stop-color="white" stop-opacity="0"/>
</radialGradient>
<radialGradient id="paint1_radial_36_479" cx="0" cy="0" r="1" gradientTransform="matrix(-3.28768 -51.25 -55.2518 32.7917 51.7809 52.5001)" gradientUnits="userSpaceOnUse">
<stop stop-opacity="0.23"/>
<stop offset="0.861815" stop-opacity="0"/>
</radialGradient>
<clipPath id="clip0_36_479">
<rect width="60" height="60" fill="white"/>
</clipPath>
</defs>
</svg>
