<svg width="60" height="60" viewBox="0 0 60 60" fill="none" xmlns="http://www.w3.org/2000/svg">
<path d="M41.0957 22.8893C41.0957 32.5114 33.295 40.312 23.6729 40.3121C14.0506 40.3121 6.25 32.5115 6.25 22.8893C6.25014 13.2672 14.0507 5.46741 23.6729 5.46741C33.2949 5.46753 41.0956 13.2673 41.0957 22.8893ZM45.5957 22.8893C45.5956 10.782 35.7802 0.967529 23.6729 0.967407C11.5654 0.967407 1.75014 10.7819 1.75 22.8893C1.75 34.9968 11.5654 44.8121 23.6729 44.8121C35.7803 44.812 45.5957 34.9967 45.5957 22.8893Z" fill="white"/>
<path d="M59.1822 50.5802L47.0162 38.4151L43.8346 41.5968L52.818 50.5802L51.3629 52.0352L42.3795 43.0518L39.1979 46.2335L51.3629 58.3985L59.1822 50.5802Z" fill="white"/>
<path d="M50.3669 38.1208L47.1853 34.9382L35.5935 46.531L38.7751 49.7126L50.3669 38.1208Z" fill="white"/>
<path d="M35.1 22.938L23.6723 11.5103L12.2455 22.938L15.4271 26.1197L23.6723 17.8755L31.9184 26.1197L35.1 22.938Z" fill="white"/>
<path d="M32.4803 33.3364V21.2504H27.9803V28.8364H19.3651V21.2504H14.8651V33.3364H32.4803Z" fill="white"/>
<path d="M25.9226 31.0864V22.8891H21.4226V31.0864H25.9226Z" fill="white"/>
<path d="M44.5715 40.7349L39.1096 35.273L35.9279 38.4556L41.3899 43.9166L44.5715 40.7349Z" fill="white"/>
</svg>
