<svg width="60" height="60" viewBox="0 0 60 60" fill="none" xmlns="http://www.w3.org/2000/svg">
<path d="M56.5176 56.4844H51.8802V1.75781C51.8802 0.787031 51.0931 0 50.1224 0H9.87749C8.90671 0 8.11967 0.787031 8.11967 1.75781V56.4844H3.48233C2.51155 56.4844 1.72452 57.2714 1.72452 58.2422C1.72452 59.213 2.51155 60 3.48233 60H56.5178C57.4885 60 58.2756 59.213 58.2756 58.2422C58.2756 57.2714 57.4885 56.4844 56.5176 56.4844ZM24.0081 56.4844V44.5007H35.9918V56.4844H24.0081ZM39.5074 56.4844V42.7429C39.5074 41.7721 38.7204 40.985 37.7496 40.985H22.2503C21.2795 40.985 20.4924 41.7721 20.4924 42.7429V56.4844H11.6353V3.51562H48.3646V56.4844H39.5074Z" fill="white"/>
<path d="M26.2205 7.77063H17.6063C16.6355 7.77063 15.8484 8.55766 15.8484 9.52844V18.1427C15.8484 19.1134 16.6355 19.9005 17.6063 19.9005H26.2205C27.1913 19.9005 27.9783 19.1134 27.9783 18.1427V9.52844C27.9783 8.55766 27.1913 7.77063 26.2205 7.77063ZM24.4627 16.3848H19.3641V11.2863H24.4627V16.3848ZM42.3938 7.77063H33.7795C32.8088 7.77063 32.0217 8.55766 32.0217 9.52844V18.1427C32.0217 19.1134 32.8088 19.9005 33.7795 19.9005H42.3938C43.3645 19.9005 44.1516 19.1134 44.1516 18.1427V9.52844C44.1516 8.55766 43.3645 7.77063 42.3938 7.77063ZM40.6359 16.3848H35.5374V11.2863H40.6359V16.3848ZM26.2205 24.1353H17.6063C16.6355 24.1353 15.8484 24.9223 15.8484 25.8931V34.5073C15.8484 35.4781 16.6355 36.2651 17.6063 36.2651H26.2205C27.1913 36.2651 27.9783 35.4781 27.9783 34.5073V25.8931C27.9783 24.9223 27.1913 24.1353 26.2205 24.1353ZM24.4627 32.7495H19.3641V27.6509H24.4627V32.7495ZM42.3938 24.1353H33.7795C32.8088 24.1353 32.0217 24.9223 32.0217 25.8931V34.5073C32.0217 35.4781 32.8088 36.2651 33.7795 36.2651H42.3938C43.3645 36.2651 44.1516 35.4781 44.1516 34.5073V25.8931C44.1516 24.9223 43.3645 24.1353 42.3938 24.1353ZM40.6359 32.7495H35.5374V27.6509H40.6359V32.7495Z" fill="white"/>
</svg>
