<svg width="60" height="60" viewBox="0 0 60 60" fill="none" xmlns="http://www.w3.org/2000/svg">
<path d="M54.9657 8.07766C48.0347 1.0361 36.5962 1.38614 29.9972 8.70557C23.3977 1.38639 11.9597 1.03597 5.02872 8.07779C-1.86351 15.012 -1.62872 26.4304 5.47266 33.1231C1.83958 36.6285 3.92092 42.9276 8.86594 43.5417C8.56972 46.9625 11.4517 50.0995 14.8608 50.0414C15.0698 53.8072 18.8111 56.5028 22.398 55.5076C23.5748 59.9941 29.2318 61.5272 32.4772 58.2251C34.3204 56.3742 35.7863 55.2069 35.8797 52.4035C38.9254 52.3178 41.5606 49.6194 41.607 46.5444C44.6819 46.4964 47.3609 43.789 47.4082 40.6835C50.5981 40.6345 53.3639 37.7259 53.2155 34.4424L54.9654 32.6746C61.6781 25.8932 61.6781 14.859 54.9657 8.07766ZM8.11129 35.9536L9.75497 34.293C9.95717 34.0885 10.1974 33.9264 10.4618 33.8159C10.7262 33.7054 11.0096 33.6488 11.2957 33.6493C13.2092 33.6365 14.208 36.0265 12.8361 37.4058L11.1925 39.0663C9.06483 41.0452 6.15229 38.1039 8.11129 35.9536ZM12.6944 43.957C12.6944 43.369 12.9212 42.8162 13.3327 42.4005L14.9772 40.7392C15.179 40.5344 15.419 40.3721 15.6833 40.2616C15.9476 40.1511 16.2309 40.0946 16.5169 40.0953C18.4467 40.092 19.4248 42.4764 18.0575 43.8529L16.6072 45.3181C16.1639 45.8256 15.5549 46.1691 14.8731 46.158C13.7022 46.1824 12.6702 45.1402 12.6944 43.957ZM19.3274 51.1788C18.4822 50.3595 18.4822 48.8854 19.3274 48.0661L20.7777 46.6008C21.6233 45.5867 23.1077 45.4547 24.0524 46.4055C24.9018 47.2637 24.9018 48.6599 24.0524 49.5182L22.4086 51.1789C21.5591 52.0374 20.1769 52.0373 19.3274 51.1788ZM31.4008 53.8165L29.7572 55.477C29.5553 55.6821 29.3152 55.8446 29.0508 55.9553C28.7864 56.066 28.5028 56.1226 28.2166 56.1218C27.9303 56.1226 27.6468 56.066 27.3823 55.9553C27.1178 55.8447 26.8777 55.6821 26.6759 55.477C25.8308 54.6577 25.8304 53.1835 26.676 52.3643L28.3195 50.7037C29.169 49.8455 30.5513 49.8455 31.4007 50.7036C32.246 51.523 32.2461 52.9971 31.4008 53.8165ZM48.7326 36.1605C47.9215 37.0143 46.4624 37.0144 45.6514 36.1605L37.091 27.5123L34.3708 30.2604L42.9312 38.9086C43.7806 39.7668 43.7806 41.1631 42.9312 42.0213C42.0817 42.8798 40.6996 42.8796 39.8501 42.0213L31.4348 33.5198L31.2897 33.3731L28.5695 36.1212L28.7146 36.2679L37.1299 44.7694C37.9794 45.6277 37.9794 47.0241 37.1299 47.8823C36.2803 48.7406 34.8981 48.7406 34.0486 47.8823L34.0469 47.884C32.4839 46.3574 30.2994 45.8548 28.3265 46.3761C27.6984 43.7833 25.1185 41.8204 22.5241 41.8775C22.3983 39.0868 20.0629 36.5658 17.3031 36.2646C17.6673 31.4765 12.4621 28.1792 8.35429 30.5378C2.63334 25.3751 2.28096 16.3121 7.74916 10.8257C13.186 5.29472 22.1691 5.66121 27.2773 11.4537L22.5217 16.2581L26.3323 20.1078C29.2595 23.0653 33.7702 23.4722 37.1333 21.329L48.733 33.0477C49.582 33.9058 49.582 35.3022 48.7326 36.1605ZM52.2455 29.9265L51.6594 30.5185C51.5923 30.4439 51.5235 30.3709 51.4529 30.2996L37.2845 15.9858L35.9244 17.3597C34.0299 19.2737 30.9472 19.2739 29.0523 17.3597L27.9618 16.2581L33.3389 10.8257C46.4008 -1.31973 64.2651 16.7392 52.2455 29.9265Z" fill="#F70000"/>
<path d="M54.9657 8.07766C48.0347 1.0361 36.5962 1.38614 29.9972 8.70557C23.3977 1.38639 11.9597 1.03597 5.02872 8.07779C-1.86351 15.012 -1.62872 26.4304 5.47266 33.1231C1.83958 36.6285 3.92092 42.9276 8.86594 43.5417C8.56972 46.9625 11.4517 50.0995 14.8608 50.0414C15.0698 53.8072 18.8111 56.5028 22.398 55.5076C23.5748 59.9941 29.2318 61.5272 32.4772 58.2251C34.3204 56.3742 35.7863 55.2069 35.8797 52.4035C38.9254 52.3178 41.5606 49.6194 41.607 46.5444C44.6819 46.4964 47.3609 43.789 47.4082 40.6835C50.5981 40.6345 53.3639 37.7259 53.2155 34.4424L54.9654 32.6746C61.6781 25.8932 61.6781 14.859 54.9657 8.07766ZM8.11129 35.9536L9.75497 34.293C9.95717 34.0885 10.1974 33.9264 10.4618 33.8159C10.7262 33.7054 11.0096 33.6488 11.2957 33.6493C13.2092 33.6365 14.208 36.0265 12.8361 37.4058L11.1925 39.0663C9.06483 41.0452 6.15229 38.1039 8.11129 35.9536ZM12.6944 43.957C12.6944 43.369 12.9212 42.8162 13.3327 42.4005L14.9772 40.7392C15.179 40.5344 15.419 40.3721 15.6833 40.2616C15.9476 40.1511 16.2309 40.0946 16.5169 40.0953C18.4467 40.092 19.4248 42.4764 18.0575 43.8529L16.6072 45.3181C16.1639 45.8256 15.5549 46.1691 14.8731 46.158C13.7022 46.1824 12.6702 45.1402 12.6944 43.957ZM19.3274 51.1788C18.4822 50.3595 18.4822 48.8854 19.3274 48.0661L20.7777 46.6008C21.6233 45.5867 23.1077 45.4547 24.0524 46.4055C24.9018 47.2637 24.9018 48.6599 24.0524 49.5182L22.4086 51.1789C21.5591 52.0374 20.1769 52.0373 19.3274 51.1788ZM31.4008 53.8165L29.7572 55.477C29.5553 55.6821 29.3152 55.8446 29.0508 55.9553C28.7864 56.066 28.5028 56.1226 28.2166 56.1218C27.9303 56.1226 27.6468 56.066 27.3823 55.9553C27.1178 55.8447 26.8777 55.6821 26.6759 55.477C25.8308 54.6577 25.8304 53.1835 26.676 52.3643L28.3195 50.7037C29.169 49.8455 30.5513 49.8455 31.4007 50.7036C32.246 51.523 32.2461 52.9971 31.4008 53.8165ZM48.7326 36.1605C47.9215 37.0143 46.4624 37.0144 45.6514 36.1605L37.091 27.5123L34.3708 30.2604L42.9312 38.9086C43.7806 39.7668 43.7806 41.1631 42.9312 42.0213C42.0817 42.8798 40.6996 42.8796 39.8501 42.0213L31.4348 33.5198L31.2897 33.3731L28.5695 36.1212L28.7146 36.2679L37.1299 44.7694C37.9794 45.6277 37.9794 47.0241 37.1299 47.8823C36.2803 48.7406 34.8981 48.7406 34.0486 47.8823L34.0469 47.884C32.4839 46.3574 30.2994 45.8548 28.3265 46.3761C27.6984 43.7833 25.1185 41.8204 22.5241 41.8775C22.3983 39.0868 20.0629 36.5658 17.3031 36.2646C17.6673 31.4765 12.4621 28.1792 8.35429 30.5378C2.63334 25.3751 2.28096 16.3121 7.74916 10.8257C13.186 5.29472 22.1691 5.66121 27.2773 11.4537L22.5217 16.2581L26.3323 20.1078C29.2595 23.0653 33.7702 23.4722 37.1333 21.329L48.733 33.0477C49.582 33.9058 49.582 35.3022 48.7326 36.1605ZM52.2455 29.9265L51.6594 30.5185C51.5923 30.4439 51.5235 30.3709 51.4529 30.2996L37.2845 15.9858L35.9244 17.3597C34.0299 19.2737 30.9472 19.2739 29.0523 17.3597L27.9618 16.2581L33.3389 10.8257C46.4008 -1.31973 64.2651 16.7392 52.2455 29.9265Z" fill="url(#paint0_radial_36_459)" fill-opacity="0.7"/>
<path d="M54.9657 8.07766C48.0347 1.0361 36.5962 1.38614 29.9972 8.70557C23.3977 1.38639 11.9597 1.03597 5.02872 8.07779C-1.86351 15.012 -1.62872 26.4304 5.47266 33.1231C1.83958 36.6285 3.92092 42.9276 8.86594 43.5417C8.56972 46.9625 11.4517 50.0995 14.8608 50.0414C15.0698 53.8072 18.8111 56.5028 22.398 55.5076C23.5748 59.9941 29.2318 61.5272 32.4772 58.2251C34.3204 56.3742 35.7863 55.2069 35.8797 52.4035C38.9254 52.3178 41.5606 49.6194 41.607 46.5444C44.6819 46.4964 47.3609 43.789 47.4082 40.6835C50.5981 40.6345 53.3639 37.7259 53.2155 34.4424L54.9654 32.6746C61.6781 25.8932 61.6781 14.859 54.9657 8.07766ZM8.11129 35.9536L9.75497 34.293C9.95717 34.0885 10.1974 33.9264 10.4618 33.8159C10.7262 33.7054 11.0096 33.6488 11.2957 33.6493C13.2092 33.6365 14.208 36.0265 12.8361 37.4058L11.1925 39.0663C9.06483 41.0452 6.15229 38.1039 8.11129 35.9536ZM12.6944 43.957C12.6944 43.369 12.9212 42.8162 13.3327 42.4005L14.9772 40.7392C15.179 40.5344 15.419 40.3721 15.6833 40.2616C15.9476 40.1511 16.2309 40.0946 16.5169 40.0953C18.4467 40.092 19.4248 42.4764 18.0575 43.8529L16.6072 45.3181C16.1639 45.8256 15.5549 46.1691 14.8731 46.158C13.7022 46.1824 12.6702 45.1402 12.6944 43.957ZM19.3274 51.1788C18.4822 50.3595 18.4822 48.8854 19.3274 48.0661L20.7777 46.6008C21.6233 45.5867 23.1077 45.4547 24.0524 46.4055C24.9018 47.2637 24.9018 48.6599 24.0524 49.5182L22.4086 51.1789C21.5591 52.0374 20.1769 52.0373 19.3274 51.1788ZM31.4008 53.8165L29.7572 55.477C29.5553 55.6821 29.3152 55.8446 29.0508 55.9553C28.7864 56.066 28.5028 56.1226 28.2166 56.1218C27.9303 56.1226 27.6468 56.066 27.3823 55.9553C27.1178 55.8447 26.8777 55.6821 26.6759 55.477C25.8308 54.6577 25.8304 53.1835 26.676 52.3643L28.3195 50.7037C29.169 49.8455 30.5513 49.8455 31.4007 50.7036C32.246 51.523 32.2461 52.9971 31.4008 53.8165ZM48.7326 36.1605C47.9215 37.0143 46.4624 37.0144 45.6514 36.1605L37.091 27.5123L34.3708 30.2604L42.9312 38.9086C43.7806 39.7668 43.7806 41.1631 42.9312 42.0213C42.0817 42.8798 40.6996 42.8796 39.8501 42.0213L31.4348 33.5198L31.2897 33.3731L28.5695 36.1212L28.7146 36.2679L37.1299 44.7694C37.9794 45.6277 37.9794 47.0241 37.1299 47.8823C36.2803 48.7406 34.8981 48.7406 34.0486 47.8823L34.0469 47.884C32.4839 46.3574 30.2994 45.8548 28.3265 46.3761C27.6984 43.7833 25.1185 41.8204 22.5241 41.8775C22.3983 39.0868 20.0629 36.5658 17.3031 36.2646C17.6673 31.4765 12.4621 28.1792 8.35429 30.5378C2.63334 25.3751 2.28096 16.3121 7.74916 10.8257C13.186 5.29472 22.1691 5.66121 27.2773 11.4537L22.5217 16.2581L26.3323 20.1078C29.2595 23.0653 33.7702 23.4722 37.1333 21.329L48.733 33.0477C49.582 33.9058 49.582 35.3022 48.7326 36.1605ZM52.2455 29.9265L51.6594 30.5185C51.5923 30.4439 51.5235 30.3709 51.4529 30.2996L37.2845 15.9858L35.9244 17.3597C34.0299 19.2737 30.9472 19.2739 29.0523 17.3597L27.9618 16.2581L33.3389 10.8257C46.4008 -1.31973 64.2651 16.7392 52.2455 29.9265Z" fill="url(#paint1_radial_36_459)"/>
<defs>
<radialGradient id="paint0_radial_36_459" cx="0" cy="0" r="1" gradientTransform="matrix(31.6667 37.2083 -39.1667 30.0833 15.8333 14.875)" gradientUnits="userSpaceOnUse">
<stop stop-color="white" stop-opacity="0.59"/>
<stop offset="0.697917" stop-color="white" stop-opacity="0"/>
<stop offset="1" stop-color="white" stop-opacity="0"/>
</radialGradient>
<radialGradient id="paint1_radial_36_459" cx="0" cy="0" r="1" gradientTransform="matrix(-3.28767 -48.6875 -55.2518 31.1521 51.7808 52.875)" gradientUnits="userSpaceOnUse">
<stop stop-opacity="0.23"/>
<stop offset="0.861815" stop-opacity="0"/>
</radialGradient>
</defs>
</svg>
