<svg width="80" height="80" viewBox="0 0 80 80" fill="none" xmlns="http://www.w3.org/2000/svg">
<path d="M68.2537 7.00492L68.2344 7H20.7176C18.6588 7.0039 16.6854 7.83763 15.2299 9.31853C13.7743 10.7994 12.9552 12.8067 12.952 14.9007V58.1176H7.34884C5.50045 58.1176 4 59.6461 4 61.5236V65.0698C4.00256 67.1696 4.82383 69.1826 6.28369 70.6674C7.74356 72.1522 9.72282 72.9875 11.7874 72.9902H53.5439C56.6391 72.9902 59.7439 73.2629 62.2519 70.9382C63.054 70.1938 63.6946 69.2874 64.1327 68.277C64.5708 67.2665 64.7968 66.1741 64.7961 65.0698V21.8529H72.6536C74.4995 21.8529 76 20.3243 76 18.4493V14.9007C75.9975 12.8104 75.1811 10.8062 73.7294 9.32648C72.2777 7.84678 70.3089 7.01206 68.2537 7.00492ZM11.7874 68.5692C10.8759 68.5679 10.0021 68.199 9.35759 67.5435C8.71307 66.888 8.35042 65.9993 8.34914 65.0722V62.5435H49.2625V65.0722C49.2625 66.328 49.55 67.5149 50.0622 68.5692H11.7874ZM60.447 65.0722C60.447 66.0773 60.0483 66.9989 59.3235 67.6697C58.8305 68.1187 58.2203 68.413 57.5665 68.5168C56.9127 68.6207 56.2433 68.5298 55.6393 68.2551C55.0352 67.9803 54.5222 67.5336 54.1624 66.9688C53.8026 66.4039 53.6113 65.7452 53.6116 65.0722V61.5261C53.6116 59.6461 52.1087 58.1201 50.2603 58.1201H17.2987V14.9007C17.2987 12.9839 18.833 11.4234 20.7176 11.4234H61.2395C60.0507 13.8907 60.447 16.9773 60.447 19.6412V65.0722ZM71.6533 17.4295H64.7961V14.9007C64.8294 13.9985 65.2052 13.1446 65.8446 12.5183C66.4839 11.892 67.337 11.5421 68.2247 11.5421C69.1124 11.5421 69.9655 11.892 70.6048 12.5183C71.2442 13.1446 71.62 13.9985 71.6533 14.9007V17.4295Z" fill="#F70000"/>
<path d="M34.3716 21.7978H43.6331C44.2047 21.7978 44.7528 21.5451 45.1569 21.0952C45.5611 20.6453 45.7881 20.0351 45.7881 19.3989C45.7881 18.7627 45.5611 18.1525 45.1569 17.7026C44.7528 17.2527 44.2047 17 43.6331 17H34.3716C33.8001 17 33.252 17.2527 32.8479 17.7026C32.4437 18.1525 32.2167 18.7627 32.2167 19.3989C32.2167 20.0351 32.4437 20.6453 32.8479 21.0952C33.252 21.5451 33.8001 21.7978 34.3716 21.7978ZM50.845 29.1331H27.155C26.5834 29.1331 26.0353 29.3859 25.6312 29.8357C25.227 30.2856 25 30.8958 25 31.532C25 32.1683 25.227 32.7784 25.6312 33.2283C26.0353 33.6782 26.5834 33.9309 27.155 33.9309H50.845C51.4166 33.9309 51.9647 33.6782 52.3688 33.2283C52.773 32.7784 53 32.1683 53 31.532C53 30.8958 52.773 30.2856 52.3688 29.8357C51.9647 29.3859 51.4166 29.1331 50.845 29.1331ZM50.845 38.169H27.155C26.5834 38.169 26.0353 38.4217 25.6312 38.8716C25.227 39.3215 25 39.9317 25 40.5679C25 41.2041 25.227 41.8143 25.6312 42.2642C26.0353 42.7141 26.5834 42.9668 27.155 42.9668H50.845C51.4166 42.9668 51.9647 42.7141 52.3688 42.2642C52.773 41.8143 53 41.2041 53 40.5679C53 39.9317 52.773 39.3215 52.3688 38.8716C51.9647 38.4217 51.4166 38.169 50.845 38.169ZM50.845 47.2022H27.155C26.5834 47.2022 26.0353 47.4549 25.6312 47.9048C25.227 48.3547 25 48.9649 25 49.6011C25 50.2373 25.227 50.8475 25.6312 51.2974C26.0353 51.7473 26.5834 52 27.155 52H50.845C51.4166 52 51.9647 51.7473 52.3688 51.2974C52.773 50.8475 53 50.2373 53 49.6011C53 48.9649 52.773 48.3547 52.3688 47.9048C51.9647 47.4549 51.4166 47.2022 50.845 47.2022Z" fill="#F70000"/>
</svg>
