<svg width="80" height="80" viewBox="0 0 80 80" fill="none" xmlns="http://www.w3.org/2000/svg">
<path d="M75.3573 75.3125H69.174V2.34375C69.174 1.04937 68.1246 0 66.8303 0H13.1704C11.8761 0 10.8267 1.04937 10.8267 2.34375V75.3125H4.64355C3.34918 75.3125 2.2998 76.3619 2.2998 77.6562C2.2998 78.9506 3.34918 80 4.64355 80H75.3575C76.6518 80 77.7012 78.9506 77.7012 77.6562C77.7012 76.3619 76.6518 75.3125 75.3573 75.3125ZM32.0112 75.3125V59.3342H47.9895V75.3125H32.0112ZM52.677 75.3125V56.9905C52.677 55.6961 51.6276 54.6467 50.3332 54.6467H29.6675C28.3731 54.6467 27.3237 55.6961 27.3237 56.9905V75.3125H15.5142V4.6875H64.4865V75.3125H52.677Z" fill="#F70000"/>
<path d="M34.9602 10.3608H23.4746C22.1802 10.3608 21.1309 11.4102 21.1309 12.7046V24.1902C21.1309 25.4846 22.1802 26.534 23.4746 26.534H34.9602C36.2546 26.534 37.304 25.4846 37.304 24.1902V12.7046C37.304 11.4102 36.2546 10.3608 34.9602 10.3608ZM32.6165 21.8465H25.8184V15.0483H32.6165V21.8465ZM56.5246 10.3608H45.039C43.7446 10.3608 42.6952 11.4102 42.6952 12.7046V24.1902C42.6952 25.4846 43.7446 26.534 45.039 26.534H56.5246C57.819 26.534 58.8684 25.4846 58.8684 24.1902V12.7046C58.8684 11.4102 57.819 10.3608 56.5246 10.3608ZM54.1809 21.8465H47.3827V15.0483H54.1809V21.8465ZM34.9602 32.1804H23.4746C22.1802 32.1804 21.1309 33.2297 21.1309 34.5241V46.0097C21.1309 47.3041 22.1802 48.3535 23.4746 48.3535H34.9602C36.2546 48.3535 37.304 47.3041 37.304 46.0097V34.5241C37.304 33.2297 36.2546 32.1804 34.9602 32.1804ZM32.6165 43.666H25.8184V36.8679H32.6165V43.666ZM56.5246 32.1804H45.039C43.7446 32.1804 42.6952 33.2297 42.6952 34.5241V46.0097C42.6952 47.3041 43.7446 48.3535 45.039 48.3535H56.5246C57.819 48.3535 58.8684 47.3041 58.8684 46.0097V34.5241C58.8684 33.2297 57.819 32.1804 56.5246 32.1804ZM54.1809 43.666H47.3827V36.8679H54.1809V43.666Z" fill="#F70000"/>
</svg>
