<svg width="80" height="80" viewBox="0 0 80 80" fill="none" xmlns="http://www.w3.org/2000/svg">
<path d="M73.2876 10.7702C64.0463 1.38146 48.7949 1.84818 39.9963 11.6074C31.197 1.84853 15.9462 1.38129 6.70496 10.7704C-2.48468 20.0159 -2.17162 35.2405 7.29688 44.1641C2.45277 48.838 5.22789 57.2369 11.8213 58.0556C11.4263 62.6167 15.269 66.7994 19.8144 66.7218C20.0931 71.7429 25.0815 75.3371 29.864 74.0102C31.4331 79.9921 38.9757 82.0362 43.303 77.6335C45.7606 75.1656 47.715 73.6093 47.8396 69.8714C51.9005 69.757 55.4141 66.1592 55.476 62.0591C59.5758 61.9952 63.1478 58.3853 63.2109 54.2446C67.4641 54.1794 71.1519 50.3012 70.9539 45.9232L73.2873 43.5661C82.2375 34.5242 82.2375 19.8119 73.2876 10.7702ZM10.8151 47.9381L13.0066 45.724C13.2762 45.4514 13.5965 45.2352 13.949 45.0879C14.3016 44.9406 14.6794 44.8651 15.0609 44.8658C17.6122 44.8487 18.944 48.0353 17.1149 49.8744L14.9233 52.0885C12.0864 54.7269 8.20305 50.8053 10.8151 47.9381ZM16.9259 58.6094C16.9259 57.8253 17.2282 57.0883 17.7769 56.534L19.9696 54.3189C20.2387 54.0459 20.5587 53.8295 20.9111 53.6821C21.2634 53.5348 21.6412 53.4594 22.0226 53.4605C24.5956 53.456 25.8998 56.6352 24.0767 58.4705L22.1429 60.4241C21.5519 61.1008 20.7399 61.5587 19.8308 61.5441C18.2696 61.5765 16.8936 60.1869 16.9259 58.6094ZM25.7698 68.2384C24.6429 67.146 24.6429 65.1805 25.7698 64.0882L27.7036 62.1344C28.831 60.7823 30.8102 60.6063 32.0698 61.874C33.2024 63.0183 33.2024 64.8798 32.0698 66.0243L29.8781 68.2385C28.7455 69.3832 26.9026 69.3831 25.7698 68.2384ZM41.8678 71.7553L39.6762 73.9694C39.4071 74.2428 39.087 74.4595 38.7344 74.6071C38.3818 74.7547 38.0037 74.8301 37.6221 74.8291C37.2404 74.8301 36.8623 74.7547 36.5097 74.6071C36.1571 74.4596 35.837 74.2428 35.5678 73.9694C34.4411 72.8769 34.4406 70.9114 35.568 69.819L37.7594 67.605C38.8919 66.4606 40.7351 66.4606 41.8676 67.6048C42.9947 68.6973 42.9949 70.6628 41.8678 71.7553ZM64.9768 48.214C63.8954 49.3524 61.9498 49.3526 60.8686 48.214L49.4547 36.683L45.8278 40.3471L57.2416 51.8781C58.3742 53.0224 58.3742 54.8841 57.2416 56.0284C56.1089 57.1731 54.2661 57.1728 53.1334 56.0284L41.9131 44.693L41.7195 44.4975L38.0926 48.1616L38.2862 48.3571L49.5065 59.6926C50.6392 60.8369 50.6392 62.6988 49.5065 63.8431C48.3738 64.9874 46.5308 64.9874 45.3981 63.8431L45.3959 63.8453C43.3119 61.8099 40.3993 61.1397 37.7686 61.8348C36.9312 58.3777 33.4913 55.7605 30.0321 55.8367C29.8644 52.1158 26.7506 48.7544 23.0708 48.3528C23.5564 41.9687 16.6161 37.5722 11.1391 40.7171C3.51112 33.8335 3.04127 21.7495 10.3322 14.4343C17.5813 7.05962 29.5589 7.54827 36.3697 15.2716L30.0289 21.6774L35.1098 26.8104C39.0126 30.7537 45.0269 31.2962 49.5111 28.4386L64.9773 44.0636C66.1093 45.2078 66.1093 47.0696 64.9768 48.214ZM69.6607 39.902L68.8791 40.6914C68.7897 40.5918 68.698 40.4945 68.6039 40.3995L49.7127 21.3143L47.8991 23.1463C45.3731 25.6982 41.2629 25.6986 38.7364 23.1463L37.2824 21.6774L44.4519 14.4343C61.8677 -1.75963 85.6868 22.3189 69.6607 39.902Z" fill="url(#paint0_linear_61_58)"/>
<defs>
<linearGradient id="paint0_linear_61_58" x1="40" y1="4" x2="40" y2="80" gradientUnits="userSpaceOnUse">
<stop stop-color="#FAD500"/>
<stop offset="1" stop-color="#FA9100"/>
</linearGradient>
</defs>
</svg>
