<svg width="60" height="60" viewBox="0 0 60 60" fill="none" xmlns="http://www.w3.org/2000/svg">
<path d="M55.9836 41.2315C55.9322 40.5534 55.7444 39.8931 55.4318 39.2907C55.1192 38.6884 54.6883 38.1566 54.1654 37.728C53.1348 36.8833 51.8198 36.4756 50.4973 36.5907C49.1749 36.7057 47.9483 37.3347 47.0761 38.3449L41.072 45.3974C41.0291 44.0426 40.4646 42.7581 39.4984 41.8169C38.5322 40.8757 37.2406 40.3521 35.898 40.3574H30.9538C28.8764 38.7413 25.6438 37.7919 22.1313 37.7919C19.4422 37.7245 16.7807 38.3525 14.3998 39.6163V38.75C14.3998 38.2859 14.2172 37.8408 13.8922 37.5126C13.5671 37.1844 13.1262 37 12.6665 37H5.73331C5.27361 37 4.83273 37.1844 4.50767 37.5126C4.18262 37.8408 4 38.2859 4 38.75V56.25C4 56.7141 4.18262 57.1592 4.50767 57.4874C4.83273 57.8156 5.27361 58 5.73331 58H12.6665C13.1262 58 13.5671 57.8156 13.8922 57.4874C14.2172 57.1592 14.3998 56.7141 14.3998 56.25V54.1211H17.1341C19.0627 54.1194 20.9719 54.5092 22.7483 55.2674C24.9513 56.2067 27.3188 56.6897 29.7101 56.6875H40.5182C41.7409 56.6889 42.9502 56.4291 44.0664 55.9251C45.1826 55.4211 46.1806 54.6844 46.9947 53.7633L54.7374 44.9678C55.1857 44.4632 55.5274 43.8716 55.7416 43.2292C55.9559 42.5868 56.0383 41.9071 55.9836 41.2315ZM10.9332 54.5H7.46661V40.5H10.9332V54.5ZM52.1452 42.6437L44.4034 51.4375C43.9145 51.9891 43.3156 52.4301 42.646 52.7315C41.9765 53.033 41.2513 53.1881 40.5182 53.1866H29.7101C27.7813 53.1884 25.8717 52.7986 24.0951 52.0404C21.8927 51.1 19.5254 50.617 17.1341 50.6203H14.3998V44.6738C14.3998 43.2948 17.4123 41.2919 22.1304 41.2919C25.0302 41.2919 27.781 42.1161 29.1442 43.391C29.4648 43.6909 29.8858 43.8575 30.3229 43.8574H35.898C36.344 43.8508 36.7743 44.0231 37.0947 44.3364C37.4151 44.6496 37.5993 45.0784 37.6071 45.5286V46.345H28.1536C27.6939 46.345 27.2531 46.5294 26.928 46.8576C26.6029 47.1857 26.4203 47.6309 26.4203 48.095C26.4203 48.5591 26.6029 49.0042 26.928 49.3324C27.2531 49.6606 27.6939 49.845 28.1536 49.845H41.0598C41.3095 49.8451 41.5562 49.7907 41.7831 49.6856C42.01 49.5805 42.2118 49.4271 42.3745 49.236L49.7038 40.626C49.9825 40.304 50.3742 40.1039 50.7963 40.068C51.2183 40.032 51.6377 40.1631 51.9658 40.4335C52.1265 40.5644 52.2591 40.7271 52.3554 40.9115C52.4517 41.096 52.5096 41.2984 52.5257 41.5063C52.5423 41.7121 52.5171 41.9192 52.4515 42.1148C52.3859 42.3104 52.2814 42.4904 52.1443 42.6437H52.1452ZM35.5575 24.3878C35.8824 24.7159 36.0649 25.161 36.0649 25.625C36.0649 26.089 35.8824 26.5341 35.5575 26.8622L30.3575 32.1123C30.0325 32.4401 29.5919 32.6242 29.1325 32.6242C28.6731 32.6242 28.2325 32.4401 27.9075 32.1123L25.3075 29.4872C24.9918 29.1572 24.8171 28.7151 24.821 28.2563C24.825 27.7975 25.0073 27.3585 25.3287 27.0341C25.65 26.7096 26.0848 26.5256 26.5392 26.5216C26.9937 26.5176 27.4315 26.694 27.7584 27.0128L29.133 28.3988L33.1074 24.3869C33.4325 24.0588 33.8733 23.8745 34.3329 23.8745C34.7925 23.8745 35.2333 24.0588 35.5583 24.3869L35.5575 24.3878ZM9.38019 22.9475C10.372 23.5371 11.5204 23.8021 12.6674 23.7061V32.625C12.6674 33.0891 12.85 33.5343 13.1751 33.8624C13.5001 34.1906 13.941 34.375 14.4007 34.375C14.8604 34.375 15.3013 34.1906 15.6263 33.8624C15.9514 33.5343 16.134 33.0891 16.134 32.625V22.3455L29.1538 14.9841C29.4126 14.8389 29.7039 14.7626 30 14.7626C30.2962 14.7626 30.5875 14.8389 30.8463 14.9841L43.8661 22.3455V33.5C43.8661 33.9641 44.0487 34.4092 44.3737 34.7374C44.6988 35.0656 45.1397 35.25 45.5994 35.25C46.0591 35.25 46.4999 35.0656 46.825 34.7374C47.1501 34.4092 47.3327 33.9641 47.3327 33.5V23.707C47.4817 23.7192 47.6299 23.7359 47.779 23.7359C49.2695 23.7301 50.6971 23.1291 51.7502 22.0641C52.8032 20.9991 53.3961 19.5567 53.3993 18.0519C53.3985 17.1311 53.1578 16.2267 52.7015 15.4294C52.2451 14.6322 51.5891 13.9702 50.7993 13.5098V7.25C50.7993 6.56056 50.6648 5.87787 50.4035 5.24091C50.1421 4.60395 49.7591 4.0252 49.2763 3.53769C48.7934 3.05018 48.2202 2.66347 47.5893 2.39963C46.9584 2.1358 46.2822 2 45.5994 2C44.9165 2 44.2403 2.1358 43.6094 2.39963C42.9786 2.66347 42.4053 3.05018 41.9225 3.53769C41.4396 4.0252 41.0566 4.60395 40.7953 5.24091C40.5339 5.87787 40.3994 6.56056 40.3994 7.25V7.62362L32.5398 3.18125C31.7625 2.74563 30.8882 2.51704 29.9992 2.51704C29.1102 2.51704 28.2358 2.74563 27.4586 3.18125L9.25885 13.4712C8.45303 13.928 7.78207 14.5929 7.31481 15.3979C6.84756 16.2029 6.60083 17.1189 6.59996 18.0519C6.59507 19.0429 6.84952 20.0176 7.33758 20.8774C7.82563 21.7372 8.52996 22.4517 9.37932 22.9484L9.38019 22.9475ZM43.8661 7.25C43.8661 6.78587 44.0487 6.34075 44.3737 6.01256C44.6988 5.68437 45.1397 5.5 45.5994 5.5C46.0591 5.5 46.4999 5.68437 46.825 6.01256C47.1501 6.34075 47.3327 6.78587 47.3327 7.25V11.5445L43.8661 9.5845V7.25ZM10.9532 16.525L29.1529 6.235C29.4118 6.08958 29.7033 6.01326 29.9996 6.01326C30.2959 6.01326 30.5874 6.08958 30.8463 6.235L49.0461 16.525C49.3149 16.677 49.5388 16.8986 49.6946 17.1669C49.8505 17.4353 49.9326 17.7408 49.9326 18.0519C49.9326 18.4314 49.8343 18.8044 49.6474 19.1337C49.4605 19.463 49.1916 19.7373 48.8672 19.9292C48.5429 20.1212 48.1745 20.2241 47.7986 20.2279C47.4227 20.2316 47.0523 20.1361 46.7243 19.9506L32.5389 11.9295C31.7616 11.4939 30.8873 11.2653 29.9983 11.2653C29.1093 11.2653 28.235 11.4939 27.4577 11.9295L13.2741 19.9489C12.9461 20.1341 12.5759 20.2295 12.2002 20.2256C11.8245 20.2218 11.4563 20.1189 11.1321 19.9271C10.808 19.7353 10.5391 19.4612 10.3522 19.1321C10.1653 18.8031 10.0668 18.4304 10.0666 18.051C10.0667 17.7401 10.149 17.4348 10.3048 17.1666C10.4606 16.8983 10.6844 16.6769 10.9532 16.525Z" fill="white"/>
</svg>
