<svg width="60" height="60" viewBox="0 0 60 60" fill="none" xmlns="http://www.w3.org/2000/svg">
<path d="M19.8706 43.4435V55.2501H40.1294V43.4435H43.6294V58.7501H16.3706V43.4435H19.8706ZM41.0415 30.3361V36.2052H37.5415V30.3361H41.0415Z" fill="white"/>
<path d="M35.5781 45.0547V58.75H24.4219V45.0547H35.5781ZM27.9219 55.25H32.0781V48.5547H27.9219V55.25ZM47.501 37.1787V48.3643L30 40.3154L12.499 48.3643V37.1787L30 28.9629L47.501 37.1787ZM15.999 39.4023V42.9014L30 36.4629L44.001 42.9014V39.4023L30 32.8291L15.999 39.4023ZM30 1.25C44.1525 1.25 56.5559 8.80496 58.7148 19.4736L59.2344 22.0381L56.666 21.5381C55.5468 21.3203 54.3661 21.2031 53.1445 21.2031C49.3207 21.2032 45.9421 22.3505 43.5996 24.0977L43.5947 24.1006C43.2998 24.319 43.0192 24.5502 42.7539 24.793L41.5713 25.875L40.3896 24.792C40.125 24.5493 39.8451 24.318 39.5508 24.0996L39.5479 24.0977C37.2054 22.3505 33.8264 21.2031 30 21.2031C26.176 21.2031 22.7976 22.3505 20.4551 24.0977L20.4502 24.1006C20.1554 24.3189 19.8746 24.5503 19.6094 24.793L18.4268 25.875L17.2451 24.792C16.9805 24.5493 16.7005 24.318 16.4062 24.0996L16.4023 24.0977C14.0601 22.3507 10.6816 21.2032 6.85547 21.2031C5.63351 21.2031 4.45165 21.3212 3.33691 21.54L0.764648 22.0449L1.28516 19.4756C3.44395 8.80509 15.8498 1.25 30 1.25ZM30 4.75C18.018 4.75 8.46082 10.4886 5.45801 17.748C5.91911 17.7192 6.3854 17.7031 6.85547 17.7031C11.3145 17.7032 15.4203 19.0244 18.4287 21.2432C21.4371 19.0246 25.543 17.7031 30 17.7031C34.459 17.7031 38.5647 19.0245 41.5732 21.2432C44.5816 19.0245 48.6875 17.7032 53.1445 17.7031C53.6145 17.7031 54.0805 17.7193 54.541 17.748C51.5389 10.4895 41.9844 4.75 30 4.75Z" fill="white"/>
<path d="M22.6146 9.93984C21.107 13.1327 20.1317 17.6777 20.0101 22.4262L16.5121 22.3373C16.6427 17.2355 17.6839 12.185 19.4496 8.4457L22.6146 9.93984ZM40.5511 8.4457C42.3167 12.1849 43.3581 17.2357 43.4886 22.3373L39.9896 22.4262C39.868 17.6777 38.8938 13.1327 37.3861 9.93984L40.5511 8.4457Z" fill="white"/>
</svg>
