<svg width="80" height="80" viewBox="0 0 80 80" fill="none" xmlns="http://www.w3.org/2000/svg">
<path d="M68.6641 31.2676C68.6641 49.972 57.416 66.8699 40.082 74.293C22.7479 66.8699 11.5 49.972 11.5 31.2676V17.4355L40.082 5.70215L68.6641 17.4355V31.2676ZM73.6641 15.7578C73.6639 14.7439 73.0513 13.8303 72.1133 13.4453L41.0312 0.687497C40.423 0.437827 39.7411 0.437827 39.1328 0.687497L8.05078 13.4453C7.11281 13.8303 6.50018 14.7439 6.5 15.7578V31.2676C6.5 52.3719 19.4166 71.3568 39.1465 79.3184C39.7467 79.5605 40.4174 79.5605 41.0176 79.3184C60.7473 71.3568 73.6641 52.3719 73.6641 31.2676V15.7578Z" fill="#F70000"/>
<path d="M35.0084 48.2183C35.9866 49.0077 37.4207 48.9515 38.3336 48.0493L54.2086 32.354C55.1905 31.3833 55.1998 29.8007 54.2292 28.8188C53.2586 27.8371 51.6759 27.828 50.694 28.7983L36.5758 42.7554L29.4704 35.73C28.4885 34.7593 26.9049 34.7686 25.9342 35.7505C24.9639 36.7323 24.9731 38.315 25.9547 39.2856L34.819 48.0493L35.0084 48.2183Z" fill="#F70000"/>
</svg>
