<svg width="80" height="80" viewBox="0 0 80 80" fill="none" xmlns="http://www.w3.org/2000/svg">
<g clip-path="url(#clip0_60_725)">
<path d="M6.84303 70.9667C6.84303 75.8891 10.8335 79.8798 15.7561 79.8798H38.5217V74.8798H15.7561C13.595 74.8798 11.843 73.1278 11.843 70.9667V31.206H6.84303V70.9667Z" fill="url(#paint0_linear_60_725)"/>
<path d="M39.1631 6.37378L63.8555 28.8992L67.2246 25.2048L39.1631 -0.394775L-0.922852 36.1746L2.44727 39.8689L39.1631 6.37378Z" fill="url(#paint1_linear_60_725)"/>
<path d="M74.5005 33.1298C74.5005 33.4436 74.1808 34.401 72.1255 35.4287C70.2198 36.3815 67.4121 37.0429 64.1743 37.0429C60.9367 37.0429 58.1289 36.3815 56.2232 35.4287C54.1679 34.401 53.8482 33.4436 53.8482 33.1298C53.8482 32.8159 54.168 31.8586 56.2232 30.831C58.1289 29.8782 60.9367 29.2167 64.1743 29.2167C67.4121 29.2168 70.2198 29.8782 72.1255 30.831C74.1806 31.8586 74.5005 32.8159 74.5005 33.1298ZM79.5005 33.1298C79.5005 29.902 76.9485 27.6527 74.3618 26.3593C71.6255 24.9912 68.0201 24.2168 64.1743 24.2167C60.3286 24.2167 56.7232 24.9911 53.9868 26.3593C51.4001 27.6527 48.8482 29.9019 48.8482 33.1298C48.8482 36.3577 51.4001 38.6069 53.9868 39.9003C56.7232 41.2685 60.3286 42.0429 64.1743 42.0429C68.0201 42.0429 71.6255 41.2685 74.3618 39.9003C76.9485 38.6069 79.5005 36.3576 79.5005 33.1298Z" fill="url(#paint2_linear_60_725)"/>
<path d="M64.1743 54.8688C68.0201 54.8688 71.6255 54.0944 74.3618 52.7262C76.9485 51.4328 79.5005 49.1835 79.5005 45.9557H74.5005C74.5005 46.2695 74.1808 47.2269 72.1255 48.2545C70.2198 49.2074 67.4121 49.8688 64.1743 49.8688C60.9367 49.8688 58.1289 49.2073 56.2232 48.2545C54.1679 47.2269 53.8482 46.2695 53.8482 45.9557H48.8482C48.8482 49.1836 51.4001 51.4328 53.9868 52.7262C56.7232 54.0944 60.3286 54.8688 64.1743 54.8688Z" fill="url(#paint3_linear_60_725)"/>
<path d="M64.1743 67.2139C68.0201 67.2139 71.6255 66.4395 74.3618 65.0713C76.9485 63.7779 79.5005 61.5286 79.5005 58.3008H74.5005C74.5005 58.6146 74.1808 59.572 72.1255 60.5996C70.2198 61.5525 67.4121 62.2139 64.1743 62.2139C60.9367 62.2139 58.1289 61.5524 56.2232 60.5996C54.1679 59.572 53.8482 58.6146 53.8482 58.3008H48.8482C48.8482 61.5287 51.4001 63.7779 53.9868 65.0713C56.7232 66.4395 60.3286 67.2139 64.1743 67.2139Z" fill="url(#paint4_linear_60_725)"/>
<path d="M74.5005 70.9667C74.5005 71.2805 74.1808 72.2379 72.1255 73.2656C70.2198 74.2184 67.4121 74.8798 64.1743 74.8798C60.9367 74.8798 58.1289 74.2184 56.2232 73.2656C54.1679 72.2379 53.8482 71.2805 53.8482 70.9667V33.6113H48.8482V70.9667C48.8482 74.1946 51.4001 76.4438 53.9868 77.7372C56.7232 79.1054 60.3286 79.8798 64.1743 79.8798C68.0201 79.8798 71.6255 79.1054 74.3618 77.7372C76.9485 76.4438 79.5005 74.1945 79.5005 70.9667V33.6113H74.5005V70.9667Z" fill="url(#paint5_linear_60_725)"/>
<path d="M48.8485 58.461C48.8485 58.7506 48.5606 59.6716 46.5048 60.6641C44.5978 61.5847 41.7811 62.2139 38.5223 62.2139C35.2847 62.2139 32.4769 61.5524 30.5712 60.5996C28.5159 59.572 28.1962 58.6146 28.1962 58.3008C28.1962 57.9869 28.516 57.0296 30.5712 56.002C32.4769 55.0492 35.2847 54.3877 38.5223 54.3877C41.7392 54.3878 44.5382 55.081 46.4432 56.0664C48.4979 57.1292 48.8484 58.1235 48.8485 58.461ZM53.8485 58.461C53.8484 55.2566 51.327 52.9641 48.7401 51.626C46.0031 50.2102 42.389 49.3878 38.5223 49.3877C34.6766 49.3877 31.0712 50.1621 28.3348 51.5303C25.7481 52.8237 23.1962 55.0729 23.1962 58.3008C23.1962 61.5287 25.7481 63.7779 28.3348 65.0713C31.0712 66.4395 34.6766 67.2139 38.5223 67.2139C42.3471 67.2139 45.9436 66.4873 48.6786 65.167C51.2646 63.9186 53.8485 61.713 53.8485 58.461Z" fill="url(#paint6_linear_60_725)"/>
<path d="M48.8482 70.9667C48.8482 71.2805 48.5288 72.2379 46.4735 73.2656C44.5678 74.2184 41.7595 74.8798 38.5217 74.8798C35.2841 74.8798 32.4769 74.2184 30.5712 73.2656C28.5159 72.2379 28.1962 71.2805 28.1962 70.9667V58.4618H23.1962V70.9667C23.1962 74.1946 25.7481 76.4438 28.3348 77.7372C31.0712 79.1054 34.676 79.8798 38.5217 79.8798C42.3675 79.8798 45.9735 79.1054 48.7098 77.7372C51.2965 76.4438 53.8482 74.1945 53.8482 70.9667L53.8485 58.461H48.8485L48.8482 70.9667Z" fill="url(#paint7_linear_60_725)"/>
</g>
<defs>
<linearGradient id="paint0_linear_60_725" x1="39.2888" y1="-0.394775" x2="39.2888" y2="79.8798" gradientUnits="userSpaceOnUse">
<stop stop-color="#8DC124"/>
<stop offset="1" stop-color="#00813B"/>
</linearGradient>
<linearGradient id="paint1_linear_60_725" x1="39.2888" y1="-0.394775" x2="39.2888" y2="79.8798" gradientUnits="userSpaceOnUse">
<stop stop-color="#8DC124"/>
<stop offset="1" stop-color="#00813B"/>
</linearGradient>
<linearGradient id="paint2_linear_60_725" x1="39.2888" y1="-0.394775" x2="39.2888" y2="79.8798" gradientUnits="userSpaceOnUse">
<stop stop-color="#8DC124"/>
<stop offset="1" stop-color="#00813B"/>
</linearGradient>
<linearGradient id="paint3_linear_60_725" x1="39.2888" y1="-0.394775" x2="39.2888" y2="79.8798" gradientUnits="userSpaceOnUse">
<stop stop-color="#8DC124"/>
<stop offset="1" stop-color="#00813B"/>
</linearGradient>
<linearGradient id="paint4_linear_60_725" x1="39.2888" y1="-0.394775" x2="39.2888" y2="79.8798" gradientUnits="userSpaceOnUse">
<stop stop-color="#8DC124"/>
<stop offset="1" stop-color="#00813B"/>
</linearGradient>
<linearGradient id="paint5_linear_60_725" x1="39.2888" y1="-0.394775" x2="39.2888" y2="79.8798" gradientUnits="userSpaceOnUse">
<stop stop-color="#8DC124"/>
<stop offset="1" stop-color="#00813B"/>
</linearGradient>
<linearGradient id="paint6_linear_60_725" x1="39.2888" y1="-0.394775" x2="39.2888" y2="79.8798" gradientUnits="userSpaceOnUse">
<stop stop-color="#8DC124"/>
<stop offset="1" stop-color="#00813B"/>
</linearGradient>
<linearGradient id="paint7_linear_60_725" x1="39.2888" y1="-0.394775" x2="39.2888" y2="79.8798" gradientUnits="userSpaceOnUse">
<stop stop-color="#8DC124"/>
<stop offset="1" stop-color="#00813B"/>
</linearGradient>
<clipPath id="clip0_60_725">
<rect width="80" height="80" fill="white"/>
</clipPath>
</defs>
</svg>
