<svg xmlns="http://www.w3.org/2000/svg" width="25" height="25" fill="currentColor" viewBox="0 0 25 25">
  <path d="M2.59 2.199v15.967a3.877 3.877 0 0 0 3.876 3.877h16.422a1 1 0 1 0 0-2H6.466a1.877 1.877 0 0 1-1.877-1.877V2.199a1 1 0 1 0-2 0Z"/>
  <path d="M5.572 3.726a1 1 0 0 0 1.404-1.424L5.356.703a2.453 2.453 0 0 0-3.438 0l-1.62 1.6a1 1 0 0 0 1.404 1.423l1.62-1.599a.453.453 0 0 1 .63 0l1.62 1.599Zm15.286 20.609a1.001 1.001 0 0 0 1.415.01l1.64-1.621.005-.005a2.438 2.438 0 0 0 0-3.448l-.005-.005-1.64-1.62a1.001 1.001 0 0 0-1.406 1.424l1.64 1.62c.166.17.166.44 0 .61l-1.64 1.62a1.001 1.001 0 0 0-.009 1.415Zm1.815-21.417v12.467a.96.96 0 0 0 1.918 0V2.918A2.877 2.877 0 0 0 21.714.041H9.295a.959.959 0 1 0 0 1.918h12.419c.53 0 .959.43.959.959ZM6.425 11.255a1 1 0 1 0 2 0 .679.679 0 1 1 1.357 0v4.274a1 1 0 1 0 2 0v-4.274a2.68 2.68 0 0 0-5.357 0Z"/>
  <path d="M6.425 9.536v5.993a1 1 0 1 0 2 0V9.536a1 1 0 0 0-2 0Zm3.357 1.719a1 1 0 0 0 2 0 .678.678 0 0 1 1.356 0v4.268a1 1 0 0 0 2 0v-4.268a2.679 2.679 0 0 0-5.356 0Zm10.014.527.102-.005a1 1 0 0 0 0-1.99l-.102-.005h-.244a9.16 9.16 0 0 0 .63-.835c.14-.212.271-.443.371-.678.096-.226.189-.517.189-.835a2.26 2.26 0 0 0-2.253-2.256 1 1 0 0 0 0 2c.128 0 .239.105.25.236a.63.63 0 0 1-.027.073c-.038.09-.104.212-.203.363a8.686 8.686 0 0 1-.779.983 18.441 18.441 0 0 1-1.099 1.118l-.074.07-.018.017-.004.003a1.001 1.001 0 0 0 .672 1.74h2.589Z"/>
  <path d="M16.207 7.434a1 1 0 1 0 2 0c0-.14.118-.256.253-.256a1 1 0 0 0 0-2 2.258 2.258 0 0 0-2.253 2.256Z"/>
</svg>
