<svg xmlns="http://www.w3.org/2000/svg" width="26" height="26" fill="currentColor" viewBox="0 0 26 26">
  <g clip-path="url(#a)">
    <path d="M16.9 2.476V7.43h-2.053V2.476c0-.352-.328-.521-.547-.521a.574.574 0 0 0-.205.039L3.243 5.891c-.725.26-1.19.912-1.19 1.655v.873C.807 9.305 0 10.726 0 12.33V7.546c0-1.551.999-2.932 2.518-3.48L13.383.156C13.684.052 14 0 14.3 0c1.368 0 2.6 1.056 2.6 2.476Zm9.1 13.75v1.303c0 .17-.07.334-.195.456a.701.701 0 0 1-.476.195h-1.997c-.726 0-1.383-.508-1.437-1.186a1.266 1.266 0 0 1 .397-1.042c.123-.122.272-.219.437-.284.165-.065.342-.097.52-.094h2.067c.397.013.684.3.684.652Z"/>
    <path d="M23.236 14.205h1.396c.752 0 1.368-.586 1.368-1.303v-.573c0-2.698-2.313-4.9-5.145-4.9H5.145c-1.163 0-2.23.364-3.092.99C.807 9.305 0 10.726 0 12.329v8.77C0 23.798 2.313 26 5.145 26h15.71C23.687 26 26 23.798 26 21.1v-.247c0-.717-.616-1.303-1.368-1.303h-1.19c-1.315 0-2.574-.77-2.916-1.981-.287-.99.055-1.942.74-2.58a2.796 2.796 0 0 1 1.97-.783Zm-7.5-.26H6.159c-.561 0-1.026-.443-1.026-.978 0-.534.465-.977 1.026-.977h9.579c.56 0 1.026.443 1.026.977 0 .535-.465.978-1.026.978Z"/>
  </g>
  <defs>
    <clipPath id="a">
      <path d="M0 0h26v26H0z"/>
    </clipPath>
  </defs>
</svg>
