<svg width="39" height="39" viewBox="0 0 39 39" fill="none" xmlns="http://www.w3.org/2000/svg">
<path d="M37.6667 28.5V37.6667C31.3463 37.6667 26.0479 36.5323 21.625 34.6302C12.8227 30.8444 7.47167 24.0198 4.4375 17.0417C1.91667 11.2483 1 5.34958 1 1H10.1667L12.4583 10.1667L4.4375 17.0417C7.47167 24.0198 12.8227 30.8444 21.625 34.6302L28.5 26.2083L37.6667 28.5Z" fill="white"/>
<path d="M21.625 34.6302C26.0479 36.5323 31.3463 37.6667 37.6667 37.6667V28.5L28.5 26.2083L21.625 34.6302ZM21.625 34.6302C12.8227 30.8444 7.47167 24.0198 4.4375 17.0417M4.4375 17.0417C1.91667 11.2483 1 5.34958 1 1H10.1667L12.4583 10.1667L4.4375 17.0417Z" stroke="white" stroke-width="2" stroke-linecap="round" stroke-linejoin="round"/>
</svg>
