<svg xmlns="http://www.w3.org/2000/svg" width="40" height="40" fill="currentColor" viewBox="0 0 40 40">
  <path d="M20 0c11.046 0 20 8.954 20 20s-8.954 20-20 20S0 31.046 0 20 8.954 0 20 0Zm0 26.5a2.5 2.5 0 1 0 0 5 2.5 2.5 0 0 0 0-5m-.334-17.75c-1.947 0-3.583.53-4.907 1.588-1.568 1.267-2.352 3.139-2.352 5.616h4.253v-.029c0-.945.199-1.72.596-2.325.548-.813 1.437-1.22 2.666-1.22.756 0 1.4.2 1.928.595.662.55.993 1.38.993 2.497 0 .7-.17 1.323-.51 1.871-.284.492-.738.973-1.362 1.446-1.324.908-2.184 1.806-2.58 2.695-.341.737-.512 1.91-.512 3.516h4c0-1.059.14-1.852.425-2.382.227-.435.7-.898 1.419-1.39 1.248-.927 2.136-1.787 2.666-2.581.642-.945.964-2.051.964-3.318 0-2.626-1.068-4.49-3.206-5.586-1.285-.662-2.778-.993-4.48-.993" clip-rule="evenodd"/>
</svg>
