<svg xmlns="http://www.w3.org/2000/svg" width="19" height="19" fill="currentColor" viewBox="0 0 19 19">
  <path d="M17.524.15H.777A.627.627 0 0 0 .15.777v16.747a.627.627 0 0 0 .627.626h10.214a.627.627 0 1 0 0-1.253H1.404v-6.685h4.338v3.084a.626.626 0 1 0 1.253 0v-7.34a.626.626 0 1 0-1.253 0v3.002H1.404V1.404h8.96v4.113a.627.627 0 0 0 .627.627h3.708a.627.627 0 1 0 0-1.254h-3.082V1.404h5.28v10.332h-5.906a.626.626 0 0 0 0 1.253h5.906v3.908H14.7a.627.627 0 0 0 0 1.253h2.825a.627.627 0 0 0 .626-.626V.777a.627.627 0 0 0-.626-.627Z"/>
  <path d="M18 .777a.476.476 0 0 0-.477-.476H.777a.476.476 0 0 0-.476.476v16.746A.477.477 0 0 0 .777 18h10.214a.477.477 0 0 0 0-.953H1.254V10.06h4.638v3.235a.477.477 0 0 0 .953 0v-7.34a.477.477 0 0 0-.953 0v3.152H1.254V1.254h9.26v4.263a.477.477 0 0 0 .477.476H14.7a.477.477 0 0 0 0-.953h-3.231V1.254h5.579v10.633H10.99a.477.477 0 1 0 0 .953h6.056v4.207h-2.348a.477.477 0 0 0 0 .953h2.824a.477.477 0 0 0 .477-.477V.777Zm.3 16.746a.778.778 0 0 1-.777.778H14.7a.778.778 0 0 1 0-1.554h2.048V13.14h-5.756a.777.777 0 0 1 0-1.554h5.756V1.554h-4.98V4.74H14.7a.777.777 0 0 1 0 1.554h-3.708a.778.778 0 0 1-.776-.777V1.554H1.554v7.255h4.038V5.955a.777.777 0 0 1 1.554 0v7.34a.777.777 0 0 1-1.554 0v-2.934H1.554v6.386h9.437a.777.777 0 0 1 0 1.554H.777A.778.778 0 0 1 0 17.523V.777A.778.778 0 0 1 .777 0h16.746c.43 0 .778.348.778.777v16.746Z"/>
</svg>
