<svg xmlns="http://www.w3.org/2000/svg" width="24" height="26" fill="currentColor" viewBox="0 0 24 26">
  <path d="M14.866 22.18h-5.39v2.911H3.428v-2.91H0v-3.26h3.428V16.58H0v-4.673h3.428V0h9.961c1.92 0 3.623.348 5.11 1.05 1.487.7 2.637 1.697 3.454 2.99.818 1.291 1.224 2.752 1.224 4.387 0 2.515-.892 4.504-2.68 5.964-1.787 1.461-4.197 2.189-7.229 2.189H9.476v2.341h5.395l-.005 3.26Zm-5.39-10.273h3.708c2.573 0 3.86-1.15 3.86-3.443 0-1.129-.322-2.036-.965-2.721-.644-.691-1.524-1.04-2.637-1.05H9.476v7.214Z"/>
</svg>
