<svg width="24" height="24" viewBox="0 0 24 24" fill="none" xmlns="http://www.w3.org/2000/svg">
<circle cx="12" cy="12" r="12" fill="#4A76A8"/>
<path d="M17.8774 15.9986C17.8774 15.9452 17.8249 15.9452 17.8249 15.8918C17.6148 15.4644 17.1421 14.9301 16.5119 14.3425C16.1967 14.0753 16.0392 13.8616 15.9341 13.7548C15.7766 13.5411 15.7766 13.3808 15.8291 13.1671C15.8816 13.0069 16.0917 12.7397 16.4593 12.2589C16.6694 11.9918 16.7745 11.8315 16.932 11.6712C17.7198 10.6027 18.0874 9.90821 17.9824 9.58767L17.9299 9.53425C17.8774 9.48082 17.8248 9.4274 17.7198 9.4274C17.6148 9.37397 17.4572 9.37397 17.2997 9.4274H15.3039C15.2514 9.4274 15.2514 9.4274 15.1464 9.4274C15.0938 9.4274 15.0413 9.4274 15.0413 9.4274H14.9888H14.9363L14.8838 9.48082C14.8312 9.53424 14.8312 9.53424 14.8312 9.58767C14.6212 10.1753 14.3586 10.6562 14.096 11.1904C13.9384 11.4575 13.7808 11.7247 13.6233 11.9384C13.4657 12.1521 13.3607 12.3123 13.2556 12.4192C13.1506 12.526 13.0456 12.5795 12.993 12.6863C12.9405 12.7397 12.8355 12.7932 12.8355 12.7397C12.783 12.7397 12.7304 12.7397 12.7304 12.6863C12.6779 12.6329 12.6254 12.5794 12.5729 12.526C12.5204 12.4726 12.5204 12.3658 12.4678 12.2589C12.4678 12.1521 12.4678 12.0452 12.4678 11.9918C12.4678 11.9384 12.4678 11.7781 12.4678 11.6712C12.4678 11.511 12.4678 11.4041 12.4678 11.3507C12.4678 11.1904 12.4678 10.9767 12.4678 10.763C12.4678 10.5493 12.4678 10.389 12.4678 10.2822C12.4678 10.1753 12.4678 10.0151 12.4678 9.90822C12.4678 9.74794 12.4678 9.64109 12.4678 9.58767C12.4678 9.53424 12.4153 9.4274 12.4153 9.37397C12.3628 9.32055 12.3103 9.26712 12.2578 9.2137C12.2053 9.16027 12.1002 9.16027 12.0477 9.10685C11.7851 9.05342 11.47 9 11.1024 9C10.262 9 9.68432 9.05343 9.47424 9.16028C9.3692 9.2137 9.26416 9.26712 9.21164 9.37397C9.1066 9.48082 9.1066 9.53425 9.15912 9.53425C9.42172 9.58767 9.6318 9.69452 9.73684 9.85479L9.78936 9.96165C9.84188 10.0151 9.84187 10.1219 9.89439 10.2822C9.94691 10.4425 9.94691 10.6027 9.94691 10.8164C9.94691 11.137 9.94691 11.4575 9.94691 11.6712C9.94691 11.9384 9.89439 12.0986 9.89439 12.2589C9.89439 12.4192 9.84188 12.526 9.78936 12.5795C9.73684 12.6863 9.73683 12.7397 9.68431 12.7397C9.68431 12.7397 9.68431 12.7931 9.63179 12.7931C9.57927 12.7931 9.52676 12.8466 9.42172 12.8466C9.3692 12.8466 9.26416 12.7932 9.21164 12.7397C9.1066 12.6863 9.00156 12.5795 8.94904 12.4726C8.844 12.3658 8.73896 12.2055 8.63392 11.9918C8.52888 11.7781 8.37132 11.5644 8.26628 11.2438L8.16125 11.0301C8.10873 10.9233 8.00369 10.7096 7.89865 10.4425C7.79361 10.1753 7.68857 9.96165 7.58353 9.69452C7.53101 9.58767 7.4785 9.53424 7.42598 9.48082H7.37345C7.37345 9.48082 7.32093 9.4274 7.26841 9.4274C7.21589 9.4274 7.16338 9.37397 7.11086 9.37397H5.22015C5.01007 9.37397 4.90503 9.42739 4.85251 9.48082L4.79999 9.53425C4.79999 9.53425 4.79999 9.58767 4.79999 9.64109C4.79999 9.69452 4.79999 9.74794 4.85251 9.85479C5.11511 10.4959 5.43022 11.137 5.74534 11.7781C6.06046 12.3658 6.37558 12.9 6.58566 13.274C6.84826 13.6479 7.05833 14.0219 7.32093 14.3425C7.58353 14.663 7.74108 14.8767 7.7936 14.9836C7.89864 15.0904 7.95116 15.1438 8.00368 15.1973L8.16125 15.3575C8.26629 15.4644 8.42384 15.6247 8.63392 15.7849C8.844 15.9452 9.1066 16.1055 9.36919 16.2658C9.63179 16.426 9.94692 16.5329 10.262 16.6397C10.6297 16.7466 10.9448 16.8 11.2599 16.7466H12.0477C12.2053 16.7466 12.3103 16.6932 12.4153 16.5863L12.4678 16.5329C12.4678 16.4795 12.5204 16.4795 12.5204 16.426C12.5204 16.3726 12.5204 16.3192 12.5204 16.2123C12.5204 15.9986 12.5204 15.8384 12.5729 15.6781C12.6254 15.5178 12.6254 15.411 12.6779 15.3041C12.7305 15.1973 12.783 15.1438 12.8355 15.0904C12.888 15.037 12.9405 14.9836 12.9405 14.9836H12.993C13.0981 14.9301 13.2556 14.9836 13.3607 15.0904C13.5182 15.1973 13.6758 15.3575 13.7808 15.5178C13.8859 15.6781 14.0434 15.8384 14.2535 16.0521C14.4636 16.2658 14.6212 16.426 14.7262 16.4795L14.8838 16.5863C14.9888 16.6397 15.0938 16.6932 15.2514 16.7466C15.409 16.8 15.514 16.8 15.619 16.8L17.4047 16.7466C17.5623 16.7466 17.7198 16.6932 17.8249 16.6397C17.9299 16.5863 17.9824 16.5329 17.9824 16.426C17.9824 16.3726 17.9824 16.2658 17.9824 16.2123C17.8774 16.1055 17.8774 16.0521 17.8774 15.9986Z" fill="white"/>
</svg>
